<svg width="48" height="48" viewBox="0 0 48 48" fill="none" xmlns="http://www.w3.org/2000/svg">
<path d="M35 26.88C35 32.4691 29.2073 37 24 37C18.7927 37 13 32.4691 13 26.88C13 21.2909 18.7927 15 24 15C29.2073 15 35 21.2909 35 26.88Z" stroke="#CCC884" stroke-width="1.6" stroke-linecap="round" stroke-linejoin="round"/>
<ellipse cx="24" cy="27.5" rx="4" ry="3.5" stroke="#CCC884" stroke-width="1.6" stroke-linecap="round" stroke-linejoin="round"/>
<line x1="25.8" y1="27.8" x2="25.8" y2="28.2" stroke="#CCC884" stroke-width="1.6" stroke-linecap="round" stroke-linejoin="round"/>
<line x1="22.8" y1="27.8" x2="22.8" y2="28.2" stroke="#CCC884" stroke-width="1.6" stroke-linecap="round" stroke-linejoin="round"/>
<path d="M29 16.0625C29.9515 15.0417 32.8062 13 36.6123 13C37.2467 15.1875 37.5639 19.65 33.7577 20" stroke="#CCC884" stroke-width="1.6" stroke-linecap="round" stroke-linejoin="round"/>
<path d="M19 16.0625C18.0485 15.0417 15.1938 13 11.3877 13C10.7533 15.1875 10.4361 19.65 14.2423 20" stroke="#CCC884" stroke-width="1.6" stroke-linecap="round" stroke-linejoin="round"/>
</svg>
