<svg width="48" height="48" viewBox="0 0 48 48" fill="none" xmlns="http://www.w3.org/2000/svg">
<g clip-path="url(#clip0_135_1157)">
<g clip-path="url(#clip1_135_1157)">
<path d="M29.18 31.1384L30.7354 27.2498C31.7694 24.665 31.4464 21.7347 29.8743 19.4371V19.4371C28.8372 17.9213 27.1188 17.0149 25.2822 17.0149H23.097C21.2793 17.0149 19.5786 17.9119 18.5522 19.4121V19.4121C16.9726 21.7207 16.6687 24.6717 17.7445 27.2537L19.2294 30.8174" stroke="#CCC884" stroke-width="1.6"/>
<path d="M26.9336 17.5032C27.5786 16.7589 28.8687 14.6562 28.8687 12.2C30.1587 13.4095 32.0938 16.3867 29.5137 18.6197" stroke="#CCC884" stroke-width="1.6"/>
<path d="M21.7974 17.5032C21.1523 16.7589 19.8623 14.6562 19.8623 12.2C18.5722 13.4095 16.6372 16.3867 19.2173 18.6197" stroke="#CCC884" stroke-width="1.6"/>
<path d="M18.7458 32.893C18.7458 31.4183 19.8518 30.1781 21.3168 30.0099L21.7471 29.9604C23.2737 29.7851 24.8154 29.7851 26.3421 29.9604L26.7723 30.0099C28.2374 30.1781 29.3433 31.4183 29.3433 32.893C29.3433 34.4958 28.044 35.7951 26.4413 35.7951H24.0446H21.6479C20.0451 35.7951 18.7458 34.4958 18.7458 32.893Z" stroke="#CCC884" stroke-width="1.6"/>
<path d="M21.1553 35.9531C21.2623 36.7021 21.7972 38.2 24.0442 38.2C25.9701 38.2 26.7191 36.7021 26.9331 35.9531" stroke="#CCC884" stroke-width="1.6"/>
<circle cx="21.7972" cy="32.7433" r="0.641975" fill="#CCC884"/>
<circle cx="26.4491" cy="32.7432" r="0.641975" fill="#CCC884"/>
<path d="M30.1431 19.4285C30.5563 18.7689 31.9406 17.5816 34.172 18.1093C36.4034 18.637 38.4076 20.0881 39.1307 20.7477C37.5811 22.1768 33.8621 24.7053 31.3827 23.3861" stroke="#CCC884" stroke-width="1.6"/>
<path d="M18.5879 19.4285C18.1747 18.7689 16.7904 17.5816 14.5589 18.1093C12.3275 18.637 10.3234 20.0881 9.60024 20.7477C11.1498 22.1768 14.8689 24.7053 17.3482 23.3861" stroke="#CCC884" stroke-width="1.6"/>
</g>
</g>
<defs>
<clipPath id="clip0_135_1157">
<rect width="48" height="48" fill="white"/>
</clipPath>
<clipPath id="clip1_135_1157">
<rect width="32" height="32" fill="white" transform="translate(8 9)"/>
</clipPath>
</defs>
</svg>
