<svg width="48" height="48" viewBox="0 0 48 48" fill="none" xmlns="http://www.w3.org/2000/svg">
<g clip-path="url(#clip0_135_1181)">
<path d="M15.1156 30.0256H10.8209M33.4314 30.0256H38.1051M38.1051 30.0256H39.9998V33.6H8.7998V30.0256H10.8209M38.1051 30.0256V22.4H34.3102C31.9413 22.4 30.0209 24.3204 30.0209 26.6894V26.6894H18.3998V26.6894C18.3998 24.3204 16.4794 22.4 14.1104 22.4H10.8209V30.0256" stroke="#CCC884" stroke-width="1.6"/>
<line x1="17.6155" y1="19.2069" x2="18.9445" y2="19.7386" stroke="#CCC884" stroke-width="1.6"/>
<line x1="21.9624" y1="20.913" x2="23.1608" y2="20.1302" stroke="#CCC884" stroke-width="1.6"/>
<line x1="26.9437" y1="13.0132" x2="27.9936" y2="13.9862" stroke="#CCC884" stroke-width="1.6"/>
<path d="M25.1997 23.2L26.6229 23.0462" stroke="#CCC884" stroke-width="1.6"/>
<line x1="26.4306" y1="18.756" x2="26.8246" y2="17.3798" stroke="#CCC884" stroke-width="1.6"/>
<line x1="31.5356" y1="19.8833" x2="32.8462" y2="20.459" stroke="#CCC884" stroke-width="1.6"/>
<path d="M37.318 22.8211C37.5 22.3513 37.5998 21.8401 37.5998 21.3053C37.5998 19.0351 35.8002 17.1887 33.5611 17.138C33.7439 16.5386 33.8422 15.902 33.8422 15.2422C33.8422 11.6843 30.9823 8.80005 27.4544 8.80005C24.2076 8.80005 21.5267 11.2428 21.1199 14.4053C20.5103 14.2104 19.8612 14.1053 19.1877 14.1053C15.6598 14.1053 12.7998 16.9895 12.7998 20.5474C12.7998 21.4931 13.0018 22.3911 13.3647 23.2001" stroke="#CCC884" stroke-width="1.6"/>
</g>
<defs>
<clipPath id="clip0_135_1181">
<rect width="32" height="32" fill="white" transform="translate(8 8)"/>
</clipPath>
</defs>
</svg>
