<svg width="48" height="48" viewBox="0 0 48 48" fill="none" xmlns="http://www.w3.org/2000/svg">
<path d="M22.259 17.2699L22.4995 18.0329C22.7515 17.9534 22.948 17.7547 23.0246 17.5019C23.1012 17.2491 23.0481 16.9747 22.8826 16.7688L22.259 17.2699ZM19.9745 14.4266L19.7203 13.668C19.4722 13.7512 19.2804 13.9504 19.2068 14.2014C19.1332 14.4525 19.1869 14.7237 19.3508 14.9277L19.9745 14.4266ZM14.9366 22.311L14.1546 22.4797C14.219 22.7779 14.4472 23.0135 14.7432 23.0873C15.0392 23.161 15.3513 23.06 15.548 22.8269L14.9366 22.311ZM13.2287 19.0395L12.6602 19.6023L13.2287 19.0395ZM9.076 17.7322L8.89367 16.9533C8.52691 17.0391 8.26971 17.3692 8.27612 17.7458L9.076 17.7322ZM10.9579 22.5217L10.3894 23.0845H10.3894L10.9579 22.5217ZM12.1555 23.425L12.5067 24.1438C12.7765 24.0119 12.9498 23.7402 12.9554 23.4399C12.961 23.1397 12.798 22.8616 12.5333 22.7198L12.1555 23.425ZM11.4648 23.8394L10.998 23.1897H10.998L11.4648 23.8394ZM9 28.1999L8.20836 28.0845C8.15671 28.439 8.34697 28.7846 8.67409 28.9305L9 28.1999ZM13.2664 27.7234L12.7996 27.0737H12.7996L13.2664 27.7234ZM15.0231 25.6266L15.6308 25.1064C15.4571 24.9034 15.1934 24.8006 14.9281 24.8323C14.6628 24.864 14.4308 25.0261 14.3098 25.2643L15.0231 25.6266ZM22.1047 30.5164L22.7284 31.0175C22.8928 30.8128 22.9463 30.5405 22.8717 30.2888C22.797 30.0372 22.6036 29.8381 22.3542 29.7563L22.1047 30.5164ZM19.9745 33.1677L19.3508 32.6666C19.1869 32.8706 19.1332 33.1418 19.2068 33.3929C19.2804 33.6439 19.4722 33.8431 19.7203 33.9262L19.9745 33.1677ZM29.0081 30.9257L28.8491 30.1417C28.6789 30.1762 28.5246 30.2652 28.4094 30.3951L29.0081 30.9257ZM38.9403 23.9179L39.6016 24.3682C39.7865 24.0965 39.7865 23.7394 39.6016 23.4677L38.9403 23.9179ZM29.2572 16.9631L28.6345 17.4654C28.7483 17.6064 28.9065 17.7047 29.0834 17.744L29.2572 16.9631ZM22.8826 16.7688L20.5981 13.9255L19.3508 14.9277L21.6353 17.771L22.8826 16.7688ZM15.548 22.8269C17.4851 20.5312 19.8704 18.8618 22.4995 18.0329L22.0184 16.5069C19.0635 17.4385 16.4313 19.299 14.3252 21.7951L15.548 22.8269ZM12.6602 19.6023C13.4026 20.3523 13.9134 21.3621 14.1546 22.4797L15.7186 22.1422C15.4229 20.7721 14.7847 19.4742 13.7973 18.4768L12.6602 19.6023ZM9.25834 18.5112C10.3899 18.2463 11.6335 18.5652 12.6602 19.6023L13.7973 18.4768C12.405 17.0702 10.6016 16.5535 8.89367 16.9533L9.25834 18.5112ZM11.5265 21.9589C10.4862 20.908 9.90359 19.3477 9.87589 17.7186L8.27612 17.7458C8.30956 19.7121 9.01047 21.6915 10.3894 23.0845L11.5265 21.9589ZM12.5333 22.7198C12.1861 22.5338 11.8465 22.2822 11.5265 21.9589L10.3894 23.0845C10.8161 23.5156 11.2831 23.8652 11.7777 24.1302L12.5333 22.7198ZM11.9316 24.489C12.1211 24.3529 12.3134 24.2383 12.5067 24.1438L11.8043 22.7062C11.5281 22.8412 11.2586 23.0024 10.998 23.1897L11.9316 24.489ZM9.79164 28.3152C10.025 26.7138 10.7939 25.3065 11.9316 24.489L10.998 23.1897C9.43735 24.3111 8.49061 26.1476 8.20836 28.0845L9.79164 28.3152ZM12.7996 27.0737C11.6823 27.8766 10.4268 27.9604 9.32591 27.4693L8.67409 28.9305C10.293 29.6527 12.1524 29.509 13.7332 28.3731L12.7996 27.0737ZM14.3098 25.2643C13.9337 26.0047 13.4215 26.6269 12.7996 27.0737L13.7332 28.3731C14.5891 27.7581 15.2598 26.9271 15.7363 25.9889L14.3098 25.2643ZM22.3542 29.7563C19.8198 28.9245 17.5169 27.3099 15.6308 25.1064L14.4153 26.1469C16.467 28.5438 19.0084 30.3422 21.8553 31.2765L22.3542 29.7563ZM20.5981 33.6688L22.7284 31.0175L21.4811 30.0153L19.3508 32.6666L20.5981 33.6688ZM28.4094 30.3951C25.866 33.265 22.0337 33.014 20.2286 32.4092L19.7203 33.9262C21.8261 34.6319 26.4574 35.01 29.6068 31.4563L28.4094 30.3951ZM38.279 23.4677C35.8905 26.9756 32.5698 29.3868 28.8491 30.1417L29.1672 31.7098C33.3676 30.8575 37.022 28.1566 39.6016 24.3682L38.279 23.4677ZM29.0834 17.744C32.7088 18.5509 35.9408 20.9341 38.279 24.3682L39.6016 23.4677C37.0762 19.7589 33.5209 17.0925 29.431 16.1822L29.0834 17.744ZM20.2286 15.1851C22.0903 14.5613 26.0932 14.3146 28.6345 17.4654L29.8799 16.4609C26.7354 12.5622 21.8853 12.9426 19.7203 13.668L20.2286 15.1851Z" fill="#CCC884"/>
<path d="M29.3802 16.8474C28.4481 18.5875 27.1432 23.1433 29.3802 27.4461" stroke="#CCC884" stroke-width="1.6" stroke-linecap="round"/>
<mask id="path-3-inside-1_135_1139" fill="white">
<ellipse cx="32.8118" cy="22.3841" rx="0.635508" ry="0.790947"/>
</mask>
<ellipse cx="32.8118" cy="22.3841" rx="0.635508" ry="0.790947" fill="#CCC884"/>
<path d="M32.4473 22.3841C32.4473 22.3902 32.4445 22.3632 32.4816 22.317C32.5202 22.2689 32.6308 22.175 32.8118 22.175V24.175C33.9082 24.175 34.4473 23.1578 34.4473 22.3841H32.4473ZM32.8118 22.175C32.9927 22.175 33.1033 22.2689 33.142 22.317C33.1791 22.3632 33.1763 22.3902 33.1763 22.3841H31.1763C31.1763 23.1578 31.7153 24.175 32.8118 24.175V22.175ZM33.1763 22.3841C33.1763 22.3779 33.1791 22.405 33.142 22.4511C33.1033 22.4992 32.9927 22.5931 32.8118 22.5931V20.5931C31.7153 20.5931 31.1763 21.6103 31.1763 22.3841H33.1763ZM32.8118 22.5931C32.6308 22.5931 32.5202 22.4992 32.4816 22.4511C32.4445 22.405 32.4473 22.3779 32.4473 22.3841H34.4473C34.4473 21.6103 33.9082 20.5931 32.8118 20.5931V22.5931Z" fill="#CCC884" mask="url(#path-3-inside-1_135_1139)"/>
</svg>
