<svg width="48" height="48" viewBox="0 0 48 48" fill="none" xmlns="http://www.w3.org/2000/svg">
<g clip-path="url(#clip0_135_1145)">
<rect x="10.8389" y="24.7386" width="19.8428" height="15.7715" rx="7.88573" transform="rotate(-44.0242 10.8389 24.7386)" stroke="#CCC884" stroke-width="1.6"/>
<path d="M30.9656 9.64091L31.5642 9.11022C31.3967 8.92128 31.1499 8.8225 30.8983 8.84374C30.6467 8.86498 30.4199 9.00375 30.2865 9.21809L30.9656 9.64091ZM38.7946 17.7412L39.2747 18.3811C39.4724 18.2327 39.5905 18.0013 39.5945 17.7541C39.5985 17.5069 39.488 17.2718 39.2951 17.1171L38.7946 17.7412ZM36.0001 15.4999L35.2194 15.3254C35.1528 15.6233 35.2615 15.9331 35.4996 16.124L36.0001 15.4999ZM36.9421 11.2858L37.7229 11.4603C37.7863 11.1764 37.6907 10.8805 37.4731 10.6874C37.2556 10.4943 36.9503 10.4346 36.676 10.5313L36.9421 11.2858ZM33.5001 12.4999L32.9015 13.0306C33.1174 13.2742 33.4593 13.3626 33.7662 13.2544L33.5001 12.4999ZM30.2865 9.21809C29.3392 10.7395 28.0997 14.635 31.1088 17.7484L32.2592 16.6364C29.994 14.2927 30.8733 11.3029 31.6447 10.0637L30.2865 9.21809ZM31.1088 17.7484C32.6038 19.2952 34.2996 19.7447 35.8038 19.646C37.2725 19.5496 38.5362 18.9352 39.2747 18.3811L38.3144 17.1013C37.7815 17.5012 36.8085 17.9766 35.699 18.0494C34.6252 18.1199 33.4013 17.818 32.2592 16.6364L31.1088 17.7484ZM39.2951 17.1171L36.5007 14.8759L35.4996 16.124L38.294 18.3653L39.2951 17.1171ZM36.7809 15.6745L37.7229 11.4603L36.1614 11.1113L35.2194 15.3254L36.7809 15.6745ZM36.676 10.5313L33.234 11.7455L33.7662 13.2544L37.2083 12.0402L36.676 10.5313ZM34.0988 11.9692L31.5642 9.11022L30.367 10.1716L32.9015 13.0306L34.0988 11.9692Z" fill="#CCC884"/>
<path d="M9.00266 29.6469L8.45408 30.2292C8.26992 30.0557 8.17869 29.8053 8.20808 29.554C8.23746 29.3027 8.384 29.0801 8.60322 28.9538L9.00266 29.6469ZM16.8316 37.7472L17.4548 38.2489C17.3052 38.4347 17.0805 38.5441 16.842 38.5472C16.6035 38.5503 16.376 38.4467 16.2217 38.2649L16.8316 37.7472ZM14.5002 34.9999L14.3687 34.2108C14.6465 34.1645 14.928 34.2676 15.1102 34.4823L14.5002 34.9999ZM10.443 35.676L10.5745 36.4651C10.3036 36.5103 10.0285 36.4133 9.84581 36.2083C9.66309 36.0033 9.5983 35.7189 9.67421 35.4549L10.443 35.676ZM11.5002 31.9999L12.0488 31.4177C12.2669 31.6231 12.3519 31.9331 12.2691 32.221L11.5002 31.9999ZM8.60322 28.9538C10.156 28.0589 14.0915 26.9528 17.1005 30.0661L15.9501 31.178C13.6849 28.8343 10.6668 29.6113 9.40211 30.3401L8.60322 28.9538ZM17.1005 30.0661C18.5956 31.613 18.9871 33.323 18.8372 34.8231C18.6908 36.2877 18.0337 37.5297 17.4548 38.2489L16.2085 37.2456C16.6262 36.7266 17.1345 35.7703 17.2451 34.664C17.3521 33.5931 17.0921 32.3597 15.9501 31.178L17.1005 30.0661ZM16.2217 38.2649L13.8903 35.5176L15.1102 34.4823L17.4416 37.2296L16.2217 38.2649ZM14.6317 35.7891L10.5745 36.4651L10.3115 34.8869L14.3687 34.2108L14.6317 35.7891ZM9.67421 35.4549L10.7314 31.7788L12.2691 32.221L11.2119 35.8971L9.67421 35.4549ZM10.9517 32.5822L8.45408 30.2292L9.55124 29.0646L12.0488 31.4177L10.9517 32.5822Z" fill="#CCC884"/>
<path d="M17.0002 30.5L18.4365 26.7503C18.9392 25.4377 20.2441 24.6111 21.6456 24.7173V24.7173C23.6026 24.8656 25.224 23.2083 25.0515 21.2533V21.2533C24.8962 19.4924 26.1961 17.9264 27.9569 17.7701L31.0002 17.5" stroke="#CCC884" stroke-width="1.6" stroke-linejoin="round"/>
</g>
<defs>
<clipPath id="clip0_135_1145">
<rect width="32" height="32" fill="white" transform="translate(8 8)"/>
</clipPath>
</defs>
</svg>
