<svg width="48" height="48" viewBox="0 0 48 48" fill="none" xmlns="http://www.w3.org/2000/svg">
<g clip-path="url(#clip0_135_1169)">
<path d="M30.3553 12.6191C22.9228 13.8397 8.79644 20.5402 11.7511 37.5773C19.0206 35.4171 32.9189 27.4012 30.3553 12.6191Z" stroke="#CCC884" stroke-width="1.6"/>
<path d="M30.5962 12.8102C29.1483 16.3933 23.4006 26.4015 11.9928 37.769" stroke="#CCC884" stroke-width="1.6"/>
<circle cx="20.112" cy="23.6039" r="2.82184" transform="rotate(42.7965 20.112 23.6039)" stroke="#CCC884" stroke-width="1.6"/>
<circle cx="15.9867" cy="29.1644" r="2.18736" transform="rotate(42.7965 15.9867 29.1644)" stroke="#CCC884" stroke-width="1.6"/>
<circle cx="24.5832" cy="18.3901" r="1.98815" transform="rotate(42.7965 24.5832 18.3901)" stroke="#CCC884" stroke-width="1.6"/>
<path d="M26.2935 8.80005C27.6856 10.5403 29.8062 12.1764 33.744 12.5808M38.4006 12.5253C36.6128 12.7135 35.0747 12.7175 33.744 12.5808M33.744 12.5808V18.5789C33.744 19.8647 34.7864 20.9071 36.0723 20.9071H36.3051C37.4624 20.9071 38.4006 19.969 38.4006 18.8117V18.8117C38.4006 17.6544 37.4624 16.7162 36.3051 16.7162H36.0723" stroke="#CCC884" stroke-width="1.6"/>
</g>
<defs>
<clipPath id="clip0_135_1169">
<rect width="32" height="32" fill="white" transform="translate(8 8)"/>
</clipPath>
</defs>
</svg>
