<svg width="48" height="48" viewBox="0 0 48 48" fill="none" xmlns="http://www.w3.org/2000/svg">
<g clip-path="url(#clip0_135_1151)">
<path d="M17.433 33.0206C13.8881 29.4757 13.8881 23.7282 17.433 20.1832C20.978 16.6383 26.7255 16.6383 30.2705 20.1832C33.8154 23.7282 33.8154 29.4757 30.2705 33.0206L23.8517 39.4394L17.433 33.0206Z" stroke="#CCC884" stroke-width="2"/>
<path d="M21.2 17.4C18.8804 17.4 17 15.5196 17 13.2L17 12.8C17 10.7013 18.7013 9.00002 20.8 9.00002C22.8987 9.00002 24.6 10.7013 24.6 12.8L24.6 17.4L21.2 17.4Z" stroke="#CCC884" stroke-width="2"/>
<path d="M26.3999 17.4C28.0568 17.4 29.3999 16.0569 29.3999 14.4L29.3999 13.6C29.3999 12.385 28.4149 11.4 27.1999 11.4C25.9849 11.4 24.9999 12.385 24.9999 13.6L24.9999 17.4L26.3999 17.4Z" stroke="#CCC884" stroke-width="2"/>
<line x1="15.2002" y1="23.8" x2="22.4002" y2="23.8" stroke="#CCC884" stroke-width="2"/>
<line x1="26.3999" y1="27" x2="33.5999" y2="27" stroke="#CCC884" stroke-width="2"/>
<line x1="20.7998" y1="31" x2="26.3998" y2="31" stroke="#CCC884" stroke-width="2"/>
</g>
<defs>
<clipPath id="clip0_135_1151">
<rect width="32" height="32" fill="white" transform="translate(8 8)"/>
</clipPath>
</defs>
</svg>
