<svg width="48" height="48" viewBox="0 0 48 48" fill="none" xmlns="http://www.w3.org/2000/svg">
<g clip-path="url(#clip0_135_1175)">
<path d="M19.9585 32.447L10.445 28.1722L10.5155 16.2569M19.9585 32.447L20.1611 20.808M19.9585 32.447L25.069 30.002M20.1611 20.808L10.5155 16.2569M20.1611 20.808L30.3821 15.918M10.5155 16.2569L20.4602 11.4992L30.3821 15.918M30.3821 15.918L30.2808 24.4" stroke="#CCC884" stroke-width="1.6"/>
<path d="M31.8835 38.8234L25.0321 35.8964L24.9244 27.3853M31.8835 38.8234L31.8739 30.5078M31.8835 38.8234L39.1188 35.1953L39.1092 26.8798M31.8739 30.5078L24.9244 27.3853M31.8739 30.5078L39.1092 26.8798M24.9244 27.3853L31.9641 23.8553L39.1092 26.8798" stroke="#CCC884" stroke-width="1.6"/>
</g>
<defs>
<clipPath id="clip0_135_1175">
<rect width="32" height="32" fill="white" transform="translate(8 8)"/>
</clipPath>
</defs>
</svg>
