<svg width="48" height="48" viewBox="0 0 48 48" fill="none" xmlns="http://www.w3.org/2000/svg">
<g clip-path="url(#clip0_135_1160)">
<path d="M48 24.2637C48 38.2469 39.7548 46 26.5 46C13.2452 46 0 38.2469 0 24.2637C0 10.2806 13.2452 1.5 26.5 1.5C39.7548 1.5 48 10.2806 48 24.2637Z" fill="#CCC884"/>
<g clip-path="url(#clip1_135_1160)">
<path d="M19.5417 17.4342L21.4038 14.2806C22.8392 11.8496 25.1976 10.1031 27.9416 9.43919V9.43919C29.2975 9.11113 30.7065 9.72211 31.3936 10.9361L31.4277 10.9963C32.5988 13.0653 33.0512 15.4641 32.7139 17.8176L32 22.8" stroke="white" stroke-width="1.6"/>
<path d="M22.5721 28.4935L18.4787 38.0807C9.23552 34.5032 14.7791 28.3231 15.6002 25.2C16.4216 22.0755 15.2077 19.802 14.2014 17.938C13.8493 17.2859 14.3479 16.549 15.0829 16.6438C24.4801 17.8563 23.7748 25.3861 22.5721 28.4935Z" stroke="white" stroke-width="1.6"/>
<path d="M22.8782 24.1106C25.5472 22.1477 30.9636 20.5802 35.8709 25.9146C36.3165 26.3989 36.1117 27.1466 35.4655 27.2717C33.4931 27.6536 31.171 27.5767 29.2355 30.5776C27.8787 32.6813 26.4414 40.0338 19.0198 38.2899" stroke="white" stroke-width="1.6"/>
<line x1="28.7059" y1="9.17652" x2="22.3059" y2="21.1765" stroke="white" stroke-width="1.6"/>
<line x1="31.1533" y1="10.6691" x2="27.1533" y2="21.8691" stroke="white" stroke-width="1.6"/>
<line x1="23.2946" y1="12.1082" x2="32.8576" y2="15.8095" stroke="white" stroke-width="1.6"/>
<line x1="21.1359" y1="15.5017" x2="32.1701" y2="19.7725" stroke="white" stroke-width="1.6"/>
</g>
</g>
<defs>
<clipPath id="clip0_135_1160">
<rect width="48" height="48" fill="white"/>
</clipPath>
<clipPath id="clip1_135_1160">
<rect width="32" height="32" fill="white" transform="translate(8 8)"/>
</clipPath>
</defs>
</svg>
