<svg width="48" height="48" viewBox="0 0 48 48" fill="none" xmlns="http://www.w3.org/2000/svg">
<path d="M27.5822 13L28.3008 12.6485C28.1665 12.374 27.8877 12.2 27.5822 12.2V13ZM20.2004 13V12.2C19.8875 12.2 19.6033 12.3824 19.473 12.6668L20.2004 13ZM30.6824 19.3377L29.9638 19.6892L30.6824 19.3377ZM17.2836 19.3677L16.5563 19.0346L17.2836 19.3677ZM16.2 20.668V34.8777H17.8V20.668H16.2ZM20.1223 38.8H27.8777V37.2H20.1223V38.8ZM31.8 34.8777V20.7096H30.2V34.8777H31.8ZM31.401 18.9861L28.3008 12.6485L26.8635 13.3515L29.9638 19.6892L31.401 18.9861ZM27.5822 12.2H20.2004V13.8H27.5822V12.2ZM19.473 12.6668L16.5563 19.0346L18.011 19.7009L20.9277 13.3332L19.473 12.6668ZM31.8 20.7096C31.8 20.1123 31.6635 19.5228 31.401 18.9861L29.9638 19.6892C30.1192 20.0069 30.2 20.3559 30.2 20.7096H31.8ZM27.8777 38.8C30.0439 38.8 31.8 37.0439 31.8 34.8777H30.2C30.2 36.1603 29.1603 37.2 27.8777 37.2V38.8ZM16.2 34.8777C16.2 37.0439 17.9561 38.8 20.1223 38.8V37.2C18.8397 37.2 17.8 36.1603 17.8 34.8777H16.2ZM17.8 20.668C17.8 20.3342 17.872 20.0043 18.011 19.7009L16.5563 19.0346C16.3215 19.5471 16.2 20.1042 16.2 20.668H17.8Z" fill="#CCC884"/>
<rect x="19" y="10" width="10" height="3" rx="1.5" stroke="#CCC884" stroke-width="1.6"/>
<path d="M17 25.0857L18.3711 24C19.8511 22.8281 21.9427 22.8281 23.4227 24V24C24.9026 25.1719 26.9943 25.1719 28.4742 24L31 22" stroke="#CCC884" stroke-width="1.6" stroke-linejoin="round"/>
</svg>
