<svg width="48" height="48" viewBox="0 0 48 48" fill="none" xmlns="http://www.w3.org/2000/svg">
<path d="M15.1433 14.1345L15.6054 12.4102L18.2891 13.2353C21.6441 14.2667 23.8874 17.4238 23.7574 20.9313L23.6351 24.2352L21.1433 23.748C16.7362 22.8864 13.9811 18.472 15.1433 14.1345Z" stroke="#CCC884" stroke-width="1.6"/>
<path d="M14.7053 23.5244L15.0801 21.7791L17.802 22.4683C21.2045 23.3298 23.6036 26.3702 23.6501 29.8798L23.6939 33.1857L21.1807 32.8243C16.7359 32.1852 13.7625 27.9148 14.7053 23.5244Z" stroke="#CCC884" stroke-width="1.6"/>
<path d="M33.6912 23.5244L33.3164 21.7791L30.5945 22.4683C27.1919 23.3298 24.7929 26.3702 24.7464 29.8798L24.7026 33.1857L27.2158 32.8243C31.6606 32.1852 34.634 27.9148 33.6912 23.5244Z" stroke="#CCC884" stroke-width="1.6"/>
<path d="M32.8682 14.1944L32.3939 12.424L29.965 13.167C26.5027 14.2262 24.2349 17.5411 24.5023 21.1519L24.7309 24.2372L26.907 23.8003C31.2943 22.9193 34.0264 18.5168 32.8682 14.1944Z" stroke="#CCC884" stroke-width="1.6"/>
<line x1="21.6814" y1="15.3417" x2="21.6814" y2="8.79999" stroke="#CCC884" stroke-width="1.6"/>
<line x1="26.4632" y1="15.3417" x2="26.4632" y2="8.79999" stroke="#CCC884" stroke-width="1.6"/>
<path d="M24 39.2L24 31.2" stroke="#CCC884" stroke-width="1.6"/>
</svg>
