<svg width="48" height="48" viewBox="0 0 48 48" fill="none" xmlns="http://www.w3.org/2000/svg">
<path d="M48 25.3846C48 37.6198 39.345 48 26.2268 48C13.1086 48 0 41.3122 0 29.0769C0 16.8417 8.65501 0 21.7732 0C34.8914 0 48 13.1494 48 25.3846Z" fill="#CCC884"/>
<rect x="11.5127" y="18.6682" width="24.0046" height="3.77881" stroke="white" stroke-width="2"/>
<mask id="path-3-inside-1_135_1130" fill="white">
<path fill-rule="evenodd" clip-rule="evenodd" d="M35.6014 21.5208H12.5636L11.7346 23.82C10.6786 26.7488 10.1386 29.8387 10.1386 32.9522C10.1386 33.3589 10.1969 33.755 10.3067 34.1314L9.40406 34.8788C8.31388 35.7815 8.31388 37.245 9.40406 38.1477C10.4942 39.0504 12.2618 39.0504 13.3519 38.1477L14.328 37.3395L15.9115 37.8105C21.2434 39.3965 26.9216 39.3965 32.2536 37.8105L33.5811 37.4157L34.4651 38.1477C35.5553 39.0504 37.3228 39.0504 38.413 38.1477C39.5032 37.245 39.5032 35.7815 38.413 34.8788L37.6177 34.2202C37.8212 33.662 37.9217 33.059 37.9003 32.4375C37.8043 29.6569 37.3253 26.9027 36.4766 24.253L35.6014 21.5208Z"/>
</mask>
<path d="M12.5636 21.5208V19.5208H11.1587L10.6822 20.8424L12.5636 21.5208ZM35.6014 21.5208L37.5061 20.9107L37.0609 19.5208H35.6014V21.5208ZM11.7346 23.82L13.6161 24.4983L13.6161 24.4983L11.7346 23.82ZM10.3067 34.1314L11.5822 35.6718L12.5948 34.8334L12.2267 33.5714L10.3067 34.1314ZM9.40406 34.8788L10.6796 36.4192H10.6796L9.40406 34.8788ZM9.40406 38.1477L8.12851 39.6882L8.12851 39.6882L9.40406 38.1477ZM13.3519 38.1477L12.0764 36.6073H12.0764L13.3519 38.1477ZM14.328 37.3395L14.8982 35.4225L13.8748 35.1181L13.0524 35.7991L14.328 37.3395ZM15.9115 37.8105L15.3412 39.7275L15.9115 37.8105ZM32.2536 37.8105L32.8238 39.7275H32.8238L32.2536 37.8105ZM33.5811 37.4157L34.8566 35.8752L34.0342 35.1943L33.0108 35.4987L33.5811 37.4157ZM34.4651 38.1477L35.7407 36.6073L35.7407 36.6073L34.4651 38.1477ZM38.413 38.1477L37.1375 36.6073L38.413 38.1477ZM38.413 34.8788L37.1375 36.4192L37.1375 36.4192L38.413 34.8788ZM37.6177 34.2202L35.7387 33.5352L35.2554 34.8608L36.3422 35.7607L37.6177 34.2202ZM37.9003 32.4375L39.8991 32.3685V32.3685L37.9003 32.4375ZM36.4766 24.253L34.5719 24.8631V24.8631L36.4766 24.253ZM12.5636 23.5208H35.6014V19.5208H12.5636V23.5208ZM13.6161 24.4983L14.4451 22.1991L10.6822 20.8424L9.85319 23.1416L13.6161 24.4983ZM12.1386 32.9522C12.1386 30.07 12.6385 27.2096 13.6161 24.4983L9.85319 23.1416C8.71872 26.2881 8.13859 29.6074 8.13859 32.9522H12.1386ZM12.2267 33.5714C12.1693 33.3747 12.1386 33.167 12.1386 32.9522H8.13859C8.13859 33.5507 8.2245 34.1353 8.38668 34.6913L12.2267 33.5714ZM9.03114 32.5909L8.12851 33.3383L10.6796 36.4192L11.5822 35.6718L9.03114 32.5909ZM8.12851 33.3383C7.16104 34.1394 6.58643 35.2801 6.58643 36.5132C6.58643 37.7464 7.16103 38.8871 8.12851 39.6882L10.6796 36.6073C10.613 36.5522 10.5916 36.5129 10.587 36.5034C10.5824 36.4941 10.5864 36.4987 10.5864 36.5132C10.5864 36.5278 10.5824 36.5324 10.587 36.5231C10.5916 36.5136 10.613 36.4743 10.6796 36.4192L8.12851 33.3383ZM8.12851 39.6882C9.95868 41.2036 12.7973 41.2036 14.6275 39.6882L12.0764 36.6073C11.7262 36.8972 11.0298 36.8972 10.6796 36.6073L8.12851 39.6882ZM14.6275 39.6882L15.6035 38.88L13.0524 35.7991L12.0764 36.6073L14.6275 39.6882ZM16.4817 35.8935L14.8982 35.4225L13.7578 39.2565L15.3412 39.7275L16.4817 35.8935ZM31.6834 35.8935C26.7235 37.3688 21.4415 37.3688 16.4817 35.8935L15.3412 39.7275C21.0453 41.4242 27.1198 41.4242 32.8238 39.7275L31.6834 35.8935ZM33.0108 35.4987L31.6834 35.8935L32.8238 39.7275L34.1513 39.3327L33.0108 35.4987ZM35.7407 36.6073L34.8566 35.8752L32.3055 38.9561L33.1896 39.6882L35.7407 36.6073ZM37.1375 36.6073C36.7873 36.8972 36.0909 36.8972 35.7407 36.6073L33.1896 39.6882C35.0198 41.2036 37.8584 41.2036 39.6886 39.6882L37.1375 36.6073ZM37.1375 36.4192C37.204 36.4743 37.2254 36.5136 37.2301 36.5231C37.2346 36.5324 37.2306 36.5278 37.2306 36.5132C37.2306 36.4987 37.2346 36.4941 37.2301 36.5034C37.2254 36.5129 37.204 36.5522 37.1375 36.6073L39.6886 39.6882C40.656 38.8871 41.2306 37.7464 41.2306 36.5132C41.2306 35.2801 40.656 34.1394 39.6886 33.3383L37.1375 36.4192ZM36.3422 35.7607L37.1375 36.4192L39.6886 33.3383L38.8933 32.6798L36.3422 35.7607ZM35.9015 32.5065C35.9139 32.8668 35.8558 33.214 35.7387 33.5352L39.4967 34.9053C39.7867 34.11 39.9296 33.2512 39.8991 32.3685L35.9015 32.5065ZM34.5719 24.8631C35.3645 27.3376 35.8119 29.9097 35.9015 32.5065L39.8991 32.3685C39.7968 29.404 39.286 26.4679 38.3812 23.643L34.5719 24.8631ZM33.6967 22.1308L34.5719 24.8631L38.3812 23.643L37.5061 20.9107L33.6967 22.1308Z" fill="white" mask="url(#path-3-inside-1_135_1130)"/>
<mask id="path-5-inside-2_135_1130" fill="white">
<path fill-rule="evenodd" clip-rule="evenodd" d="M34.5996 19.5945H12.7528C12.2958 18.747 12.0337 17.7594 12.0337 16.7051C12.0337 13.5529 14.3764 10.9976 17.2663 10.9976C18.2088 10.9976 19.0931 11.2694 19.8569 11.7451C20.775 10.0992 22.435 9 24.3304 9C26.0342 9 27.5478 9.88827 28.5033 11.2634C29.0026 11.0908 29.5344 10.9976 30.0861 10.9976C32.976 10.9976 35.3187 13.5529 35.3187 16.7051C35.3187 17.7594 35.0566 18.747 34.5996 19.5945Z"/>
</mask>
<path d="M12.7528 19.5945L10.9924 20.5437L11.559 21.5945H12.7528V19.5945ZM34.5996 19.5945V21.5945H35.7934L36.36 20.5437L34.5996 19.5945ZM19.8569 11.7451L18.7997 13.4428L20.5812 14.5522L21.6036 12.7194L19.8569 11.7451ZM28.5033 11.2634L26.8608 12.4046L27.7251 13.6486L29.1568 13.1536L28.5033 11.2634ZM12.7528 21.5945H34.5996V17.5945H12.7528V21.5945ZM14.5132 18.6452C14.2127 18.0879 14.0337 17.4264 14.0337 16.7051H10.0337C10.0337 18.0925 10.3789 19.406 10.9924 20.5437L14.5132 18.6452ZM14.0337 16.7051C14.0337 14.4904 15.641 12.9976 17.2663 12.9976V8.99762C13.1118 8.99762 10.0337 12.6155 10.0337 16.7051H14.0337ZM17.2663 12.9976C17.8163 12.9976 18.3368 13.1546 18.7997 13.4428L20.9142 10.0474C19.8494 9.38428 18.6012 8.99762 17.2663 8.99762V12.9976ZM21.6036 12.7194C22.213 11.6268 23.2472 11 24.3304 11V7C21.6228 7 19.337 8.57159 18.1102 10.7708L21.6036 12.7194ZM24.3304 11C25.3077 11 26.2365 11.506 26.8608 12.4046L30.1458 10.1222C28.8592 8.27054 26.7607 7 24.3304 7V11ZM29.1568 13.1536C29.4503 13.0522 29.7614 12.9976 30.0861 12.9976V8.99762C29.3074 8.99762 28.555 9.12937 27.8497 9.37321L29.1568 13.1536ZM30.0861 12.9976C31.7114 12.9976 33.3187 14.4904 33.3187 16.7051H37.3187C37.3187 12.6155 34.2406 8.99762 30.0861 8.99762V12.9976ZM33.3187 16.7051C33.3187 17.4264 33.1398 18.0879 32.8392 18.6452L36.36 20.5437C36.9735 19.406 37.3187 18.0925 37.3187 16.7051H33.3187Z" fill="white" mask="url(#path-5-inside-2_135_1130)"/>
<line x1="15.7" y1="14.8135" x2="17.0538" y2="15.355" stroke="white" stroke-width="2"/>
<line y1="-1" x2="1.45806" y2="-1" transform="matrix(0.837203 -0.546892 0.54689 0.837205 20.144 16.5393)" stroke="white" stroke-width="2"/>
<line x1="23.7134" y1="12.1191" x2="24.7829" y2="13.1102" stroke="white" stroke-width="2"/>
<line y1="-1" x2="1.45807" y2="-1" transform="matrix(0.994217 -0.107387 0.107386 0.994217 24.96 16.8617)" stroke="white" stroke-width="2"/>
<line y1="-1" x2="1.45806" y2="-1" transform="matrix(0.275266 -0.961368 0.961367 0.27527 28.8022 14.3464)" stroke="white" stroke-width="2"/>
<line y1="-1" x2="1.45806" y2="-1" transform="matrix(0.915557 0.402188 -0.402187 0.915558 29.7754 15.7419)" stroke="white" stroke-width="2"/>
</svg>
