<svg width="48" height="48" viewBox="0 0 48 48" fill="none" xmlns="http://www.w3.org/2000/svg">
<path d="M33.8244 17.9445C34.1872 17.0555 34.9801 15.9171 36.2909 15.9535C36.5388 16.8331 36.7605 18.5527 35.9921 19.2982L36.0069 19.31C36.5041 19.7049 37.0567 20.1437 37.642 20.5339C38.2781 20.958 39.1292 21.2747 39.8957 21.4022C40.6686 21.5308 42.145 22.1696 42.0351 22.9453C39.1537 28.8509 34.505 27.2458 33.421 27.9675C32.958 28.2907 32.4436 28.5867 31.8855 28.8509V33.6952H30.1302L29.1296 29.8038C27.8782 30.1011 26.5141 30.2645 25.0864 30.2645C23.2901 30.2645 21.5578 30.1086 20.0199 29.7208L18.9074 34.0474H17.1521V28.5588C15.1171 27.3027 13.8913 25.2375 14.1002 21.9987C14.1002 17.0811 19.0189 17.0811 25.0864 17.0811C28.1677 17.0811 31.5465 17.0811 33.8244 17.9445Z" stroke="#CCC884" stroke-width="1.28" stroke-linecap="round" stroke-linejoin="round"/>
<path d="M12.2119 19.1704C12.2301 19.9104 12.6704 21.1683 14.2862 20.2803" stroke="#CCC884" stroke-width="1.28" stroke-linecap="round" stroke-linejoin="round"/>
<path d="M19.5763 29.5075C19.3646 29.7906 19.4226 30.1916 19.7057 30.4033C19.9888 30.6149 20.3899 30.5569 20.6015 30.2738L19.5763 29.5075ZM21.8489 16.8727C21.6272 16.5974 21.2243 16.554 20.949 16.7758C20.6738 16.9975 20.6304 17.4004 20.8521 17.6757L21.8489 16.8727ZM21.1388 29.4818C21.3255 29.1817 21.2335 28.787 20.9333 28.6004C20.6332 28.4137 20.2386 28.5057 20.0519 28.8058L21.1388 29.4818ZM21.2191 26.4887C21.0867 26.8164 21.2451 27.1894 21.5728 27.3218C21.9005 27.4542 22.2735 27.2958 22.4059 26.9681L21.2191 26.4887ZM23.0104 25.1903C23.1045 24.8496 22.9045 24.4972 22.5638 24.4031C22.2231 24.3091 21.8706 24.5091 21.7766 24.8498L23.0104 25.1903ZM22.2013 22.3221C22.1836 22.6751 22.4555 22.9756 22.8085 22.9933C23.1615 23.011 23.462 22.7391 23.4797 22.3861L22.2013 22.3221ZM23.3911 20.4578C23.3383 20.1083 23.0122 19.8678 22.6627 19.9206C22.3132 19.9734 22.0727 20.2995 22.1255 20.649L23.3911 20.4578ZM21.3176 18.3431C21.4991 18.6464 21.8921 18.7452 22.1954 18.5636C22.4987 18.3821 22.5975 17.9891 22.416 17.6858L21.3176 18.3431ZM20.6015 30.2738C20.7753 30.0413 20.9562 29.7754 21.1388 29.4818L20.0519 28.8058C19.8861 29.0724 19.7256 29.3077 19.5763 29.5075L20.6015 30.2738ZM22.4059 26.9681C22.6325 26.4071 22.8394 25.8101 23.0104 25.1903L21.7766 24.8498C21.6197 25.4181 21.4291 25.9688 21.2191 26.4887L22.4059 26.9681ZM23.4797 22.3861C23.5118 21.7457 23.4879 21.0983 23.3911 20.4578L22.1255 20.649C22.2079 21.1948 22.2297 21.7558 22.2013 22.3221L23.4797 22.3861ZM22.416 17.6858C22.249 17.4069 22.0605 17.1353 21.8489 16.8727L20.8521 17.6757C21.0262 17.8918 21.1809 18.1146 21.3176 18.3431L22.416 17.6858Z" fill="#CCC884"/>
<path d="M30.3314 17.3442C30.3314 16.9908 30.0449 16.7042 29.6914 16.7042C29.3379 16.7042 29.0514 16.9908 29.0514 17.3442L30.3314 17.3442ZM36.7706 28.0073C37.1241 28.0073 37.4106 27.7208 37.4106 27.3673C37.4106 27.0139 37.1241 26.7273 36.7706 26.7273V28.0073ZM29.0538 18.0526C29.0572 18.406 29.3465 18.6898 29.7 18.6864C30.0534 18.683 30.3372 18.3938 30.3338 18.0403L29.0538 18.0526ZM30.4324 20.0932C30.3979 19.7414 30.0847 19.4843 29.733 19.5188C29.3812 19.5533 29.124 19.8664 29.1585 20.2182L30.4324 20.0932ZM29.3671 21.6712C29.4347 22.0181 29.7707 22.2446 30.1176 22.1771C30.4646 22.1096 30.6911 21.7736 30.6236 21.4266L29.3671 21.6712ZM31.1855 23.3186C31.0471 22.9934 30.6713 22.8419 30.346 22.9803C30.0208 23.1187 29.8693 23.4946 30.0077 23.8198L31.1855 23.3186ZM30.7403 25.1664C30.9405 25.4577 31.339 25.5315 31.6303 25.3313C31.9216 25.1311 31.9954 24.7327 31.7952 24.4414L30.7403 25.1664ZM33.1095 25.7583C32.8167 25.5603 32.4188 25.6372 32.2209 25.93C32.0229 26.2229 32.0998 26.6207 32.3926 26.8187L33.1095 25.7583ZM33.7837 27.525C34.1157 27.6462 34.4832 27.4754 34.6044 27.1434C34.7257 26.8114 34.5549 26.4439 34.2229 26.3227L33.7837 27.525ZM36.1104 26.7048C35.7578 26.6801 35.4519 26.9459 35.4272 27.2985C35.4025 27.6511 35.6683 27.957 36.0209 27.9817L36.1104 26.7048ZM29.0514 17.3442C29.0514 17.5607 29.0514 17.7989 29.0538 18.0526L30.3338 18.0403C30.3314 17.7936 30.3314 17.5613 30.3314 17.3442L29.0514 17.3442ZM29.1585 20.2182C29.2048 20.6899 29.2713 21.1788 29.3671 21.6712L30.6236 21.4266C30.5368 20.9807 30.4755 20.5324 30.4324 20.0932L29.1585 20.2182ZM30.0077 23.8198C30.206 24.2859 30.447 24.7396 30.7403 25.1664L31.7952 24.4414C31.5563 24.0938 31.3549 23.7167 31.1855 23.3186L30.0077 23.8198ZM32.3926 26.8187C32.8073 27.099 33.2696 27.3372 33.7837 27.525L34.2229 26.3227C33.8051 26.17 33.4362 25.9791 33.1095 25.7583L32.3926 26.8187ZM36.0209 27.9817C36.2632 27.9987 36.5131 28.0073 36.7706 28.0073V26.7273C36.5417 26.7273 36.3217 26.7196 36.1104 26.7048L36.0209 27.9817Z" fill="#CCC884"/>
</svg>
