<svg width="48" height="48" viewBox="0 0 48 48" fill="none" xmlns="http://www.w3.org/2000/svg">
<g clip-path="url(#clip0_135_1226)">
<path d="M21.4006 37.2982L32.7069 25.4894C35.5872 22.4811 35.4834 17.7075 32.4751 14.8273V14.8273C29.4591 11.9396 24.6707 12.0525 21.7941 15.079L10.5498 26.9091" stroke="#CCC884" stroke-width="1.6"/>
<path d="M33.9658 9.77954L32.778 13.8292L33.5576 14.5756L37.5518 13.2129L33.9658 9.77954Z" stroke="#CCC884" stroke-width="1.6"/>
<path d="M22.4441 36.3364C19.9204 38.9722 15.363 38.9082 12.2517 35.9294C9.14037 32.9505 8.87836 28.4001 11.402 25.7643C13.9257 23.1284 18.4831 23.1924 21.5944 26.1713C24.7057 29.1502 24.9677 33.7005 22.4441 36.3364Z" stroke="#CCC884" stroke-width="1.6"/>
<line x1="18.2695" y1="27.2493" x2="18.2969" y2="28.506" stroke="#CCC884" stroke-width="1.6"/>
<line x1="16.5347" y1="34.2018" x2="16.562" y2="35.4585" stroke="#CCC884" stroke-width="1.6"/>
<line x1="18.115" y1="31.3137" x2="16.8992" y2="30.995" stroke="#CCC884" stroke-width="1.6"/>
<line x1="13.0613" y1="30.1663" x2="11.8455" y2="29.8476" stroke="#CCC884" stroke-width="1.6"/>
<line x1="20.1134" y1="33.0435" x2="20.616" y2="31.8914" stroke="#CCC884" stroke-width="1.6"/>
<line x1="14.3351" y1="27.5116" x2="14.8376" y2="26.3595" stroke="#CCC884" stroke-width="1.6"/>
</g>
<defs>
<clipPath id="clip0_135_1226">
<rect width="32" height="32" fill="white" transform="translate(8 8)"/>
</clipPath>
</defs>
</svg>
