<svg width="48" height="48" viewBox="0 0 48 48" fill="none" xmlns="http://www.w3.org/2000/svg">
<g clip-path="url(#clip0_135_1196)">
<path d="M48 24.7637C48 38.7469 39.7548 46.5 26.5 46.5C13.2452 46.5 0 38.7469 0 24.7637C0 10.7806 13.2452 2 26.5 2C39.7548 2 48 10.7806 48 24.7637Z" fill="#CCC884"/>
<path d="M14.5555 36.3234C14.5555 36.7653 14.9136 37.1234 15.3555 37.1234C15.7973 37.1234 16.1555 36.7653 16.1555 36.3234H14.5555ZM31.3704 24.7264L30.5707 24.7486C30.5793 25.0577 30.7652 25.3341 31.0482 25.4586L31.3704 24.7264ZM35.9724 26.7513L36.2735 27.4924C36.5713 27.3715 36.7677 27.0841 36.7723 26.7627C36.7769 26.4414 36.5888 26.1485 36.2946 26.019L35.9724 26.7513ZM30.0819 29.1443L29.7808 28.4031C29.5246 28.5072 29.3403 28.7362 29.2934 29.0087C29.2466 29.2812 29.3437 29.5585 29.5504 29.7422L30.0819 29.1443ZM27.0127 31.9796C27.0537 31.5397 26.7302 31.1499 26.2903 31.1089C25.8503 31.068 25.4605 31.3915 25.4196 31.8314L27.0127 31.9796ZM16.1555 36.3234C16.1555 33.7115 16.5452 29.7451 17.6962 26.35C18.8679 22.894 20.7027 20.3701 23.3815 19.9963L23.1603 18.4117C19.5067 18.9215 17.3839 22.2881 16.1809 25.8363C14.9573 29.4455 14.5555 33.597 14.5555 36.3234H16.1555ZM23.3815 19.9963C26.3494 19.5822 28.0931 20.3666 29.1091 21.3737C30.1583 22.4137 30.5444 23.8027 30.5707 24.7486L32.1701 24.7042C32.135 23.4412 31.6376 21.6271 30.2355 20.2373C28.8001 18.8145 26.5248 17.9422 23.1603 18.4117L23.3815 19.9963ZM31.0482 25.4586L35.6502 27.4835L36.2946 26.019L31.6926 23.9941L31.0482 25.4586ZM29.5504 29.7422C30.8335 30.8828 32.2409 32.9291 32.7597 34.7398C33.0196 35.6471 33.0224 36.3759 32.8086 36.8817C32.6192 37.3296 32.1984 37.7473 31.223 37.9302L31.5178 39.5028C32.8987 39.2439 33.84 38.5509 34.2823 37.5047C34.7001 36.5164 34.6039 35.3676 34.2978 34.2991C33.6845 32.1582 32.0914 29.8602 30.6133 28.5464L29.5504 29.7422ZM31.223 37.9302C30.1899 38.1239 29.456 37.9804 28.9229 37.6923C28.3826 37.4002 27.9646 36.9138 27.6518 36.2785C27.0125 34.9796 26.8971 33.2229 27.0127 31.9796L25.4196 31.8314C25.2898 33.2266 25.3953 35.3172 26.2163 36.9851C26.6338 37.8331 27.2558 38.6099 28.1621 39.0998C29.0756 39.5936 30.1948 39.7508 31.5178 39.5028L31.223 37.9302ZM30.383 29.8855L36.2735 27.4924L35.6713 26.0101L29.7808 28.4031L30.383 29.8855Z" fill="white"/>
<path d="M26.9525 10L27.0618 9.2075C26.8018 9.17164 26.5408 9.26558 26.3633 9.45886C26.1858 9.65215 26.1144 9.92022 26.1722 10.1762L26.9525 10ZM26.4003 14.9702L26.6974 14.2274L26.4003 14.9702ZM21.0619 10.9204L20.8884 10.1394L21.0619 10.9204ZM12.5943 16.995L11.9751 16.4884C11.8587 16.6307 11.7948 16.8087 11.7943 16.9926L12.5943 16.995ZM29.7318 20.3906C30.3025 18.7736 30.8977 16.2782 30.7795 14.0669C30.7203 12.9602 30.479 11.8497 29.8965 10.9542C29.2929 10.0262 28.3581 9.3863 27.0618 9.2075L26.8432 10.7925C27.6823 10.9082 28.2063 11.29 28.5553 11.8266C28.9254 12.3957 29.1305 13.1927 29.1818 14.1523C29.2845 16.0735 28.7567 18.3459 28.223 19.8581L29.7318 20.3906ZM26.1722 10.1762C26.3816 11.1036 26.5968 12.4247 26.5897 13.4136C26.586 13.9361 26.5188 14.2272 26.4622 14.3334C26.4442 14.3671 26.4725 14.2961 26.5844 14.2544C26.6986 14.2117 26.7587 14.2519 26.6974 14.2274L26.1032 15.7129C26.41 15.8357 26.7769 15.8905 27.1445 15.7531C27.5097 15.6167 27.7378 15.3418 27.8743 15.0857C28.1264 14.6125 28.1857 13.9809 28.1897 13.425C28.198 12.2571 27.953 10.7985 27.7329 9.82379L26.1722 10.1762ZM26.6974 14.2274C26.4188 14.116 26.1074 13.8574 25.7275 13.4244C25.331 12.9725 25.0107 12.5186 24.558 11.9639C23.7772 11.0071 22.6076 9.7574 20.8884 10.1394L21.2355 11.7013C21.9093 11.5516 22.4885 11.9586 23.3184 12.9755C23.6711 13.4077 24.1216 14.02 24.5247 14.4795C24.9444 14.958 25.4613 15.4562 26.1032 15.7129L26.6974 14.2274ZM20.8884 10.1394C20.6842 10.1848 20.4574 10.2779 20.2683 10.463C20.0709 10.656 19.9718 10.8933 19.9401 11.1222C19.8848 11.5223 20.0333 11.9068 20.1536 12.1633C20.4115 12.7131 20.8927 13.3712 21.2871 13.9189C21.7252 14.5275 22.0576 15.0025 22.1858 15.3145C22.2648 15.5068 22.161 15.3915 22.2584 15.1807C22.4052 14.8626 22.6955 14.9065 22.5346 14.9065V16.5065C22.8799 16.5065 23.4521 16.4123 23.7111 15.8512C23.9206 15.3973 23.7593 14.934 23.6657 14.7063C23.4488 14.1785 22.9758 13.526 22.5855 12.9841C22.1516 12.3813 21.7814 11.8659 21.6021 11.4838C21.5038 11.2743 21.5372 11.2532 21.5251 11.3413C21.515 11.4141 21.477 11.5188 21.3871 11.6067C21.3471 11.6459 21.3082 11.6701 21.2796 11.6842C21.2656 11.6911 21.2544 11.6954 21.247 11.6979C21.2396 11.7004 21.2355 11.7013 21.2355 11.7013L20.8884 10.1394ZM22.5346 14.9065C22.2806 14.9065 21.9322 14.7724 21.4401 14.4344C20.9495 14.0974 20.4766 13.6778 19.9066 13.2193C19.3765 12.7929 18.7606 12.3329 18.1069 12.0851C17.4103 11.821 16.6164 11.7803 15.8463 12.2703L16.7053 13.6202C16.9478 13.4659 17.1893 13.4483 17.5397 13.5811C17.9329 13.7302 18.3755 14.0411 18.9038 14.466C19.3923 14.8589 19.9779 15.3712 20.5342 15.7533C21.0891 16.1343 21.7761 16.5065 22.5346 16.5065V14.9065ZM15.8463 12.2703C15.5069 12.4863 15.1574 12.8201 15.083 13.3182C15.0088 13.8149 15.2481 14.2104 15.453 14.4546C15.6644 14.7067 15.9447 14.926 16.2123 15.1111C16.4869 15.301 16.7951 15.4864 17.0898 15.6597C17.7159 16.0281 18.2475 16.3277 18.5797 16.6097C18.75 16.7543 18.7661 16.8129 18.7545 16.7816C18.7429 16.7503 18.7283 16.6854 18.7435 16.6042C18.7584 16.5244 18.7925 16.4806 18.7978 16.4744L20.0126 17.5157C20.1559 17.3484 20.2706 17.1421 20.3162 16.8985C20.362 16.6535 20.3281 16.4236 20.255 16.2262C20.1205 15.8628 19.8447 15.5848 19.6152 15.39C19.1478 14.9932 18.4483 14.6026 17.901 14.2806C17.6089 14.1088 17.3447 13.949 17.1225 13.7952C16.8932 13.6366 16.7521 13.5137 16.6788 13.4263C16.5989 13.3311 16.69 13.3901 16.6655 13.5546C16.6407 13.7205 16.5385 13.7264 16.7053 13.6202L15.8463 12.2703ZM18.7978 16.4744C18.7977 16.4744 18.7993 16.4736 18.7969 16.4748C18.7924 16.4771 18.7737 16.4858 18.7316 16.4929C18.6386 16.5084 18.4842 16.5074 18.2454 16.4658C17.7492 16.3793 17.1702 16.1764 16.4403 15.9537C15.7617 15.7467 14.9667 15.5289 14.2094 15.522C13.4212 15.5148 12.5892 15.7378 11.9751 16.4884L13.2134 17.5016C13.4276 17.2398 13.7231 17.1177 14.1948 17.122C14.6973 17.1265 15.2943 17.2769 15.9734 17.4841C16.601 17.6756 17.3451 17.9329 17.9706 18.042C18.5598 18.1447 19.4328 18.1921 20.0126 17.5157L18.7978 16.4744ZM11.7943 16.9926C11.7906 18.1592 12.3504 19.025 13.0827 19.6607C13.7911 20.2758 14.6991 20.7113 15.5043 21.0589C16.3652 21.4305 17.0628 21.6868 17.5797 21.9816C17.8301 22.1244 17.955 22.233 18.0086 22.301C18.0307 22.329 18.0293 22.3361 18.0255 22.323C18.0237 22.3168 18.0224 22.3092 18.022 22.3017C18.0216 22.2942 18.0224 22.2907 18.0221 22.2924L19.5978 22.5703C19.6852 22.0749 19.5283 21.6443 19.2651 21.3104C19.0232 21.0036 18.69 20.7729 18.3723 20.5917C17.7529 20.2385 16.874 19.9075 16.1385 19.59C15.3473 19.2484 14.639 18.8931 14.1316 18.4525C13.6481 18.0327 13.3925 17.5783 13.3942 16.9975L11.7943 16.9926Z" fill="white"/>
<circle cx="27.1367" cy="23.9901" r="0.920399" fill="white"/>
</g>
<defs>
<clipPath id="clip0_135_1196">
<rect width="48" height="48" fill="white"/>
</clipPath>
</defs>
</svg>
