<svg width="48" height="48" viewBox="0 0 48 48" fill="none" xmlns="http://www.w3.org/2000/svg">
<g clip-path="url(#clip0_135_1184)">
<path d="M48 24.7637C48 38.7469 39.7548 46.5 26.5 46.5C13.2452 46.5 0 38.7469 0 24.7637C0 10.7806 13.2452 2 26.5 2C39.7548 2 48 10.7806 48 24.7637Z" fill="#CCC884"/>
<g clip-path="url(#clip1_135_1184)">
<path d="M22.8874 9.18985C23.5077 8.5896 24.4923 8.5896 25.1126 9.18985L27.2496 11.2577C27.9029 11.8899 28.7944 12.2144 29.7013 12.15L32.6675 11.9396C33.5285 11.8785 34.2827 12.5114 34.3721 13.3699L34.6799 16.3276C34.7741 17.2319 35.2484 18.0535 35.9845 18.5871L38.392 20.3325C39.0908 20.8392 39.2618 21.8088 38.7784 22.524L37.113 24.9875C36.6039 25.7408 36.4391 26.675 36.66 27.5569L37.3823 30.4415C37.592 31.2789 37.0996 32.1316 36.2697 32.3686L33.4104 33.1854C32.5362 33.4351 31.8095 34.0449 31.4117 34.8624L30.1109 37.5365C29.7333 38.3127 28.8081 38.6494 28.0199 38.2975L25.3045 37.0853C24.4743 36.7147 23.5257 36.7147 22.6955 37.0853L19.9802 38.2975C19.192 38.6494 18.2667 38.3127 17.8891 37.5365L16.5883 34.8624C16.1905 34.0449 15.4638 33.4351 14.5896 33.1854L11.7303 32.3686C10.9004 32.1316 10.4081 31.2789 10.6177 30.4415L11.34 27.5569C11.5609 26.675 11.3961 25.7408 10.887 24.9875L9.22164 22.524C8.73823 21.8088 8.90921 20.8392 9.60805 20.3325L12.0155 18.5871C12.7516 18.0535 13.2259 17.2319 13.3201 16.3276L13.6279 13.3699C13.7173 12.5114 14.4715 11.8785 15.3325 11.9396L18.2987 12.15C19.2056 12.2144 20.0971 11.8899 20.7504 11.2577L22.8874 9.18985Z" stroke="white" stroke-width="1.6"/>
<path d="M15.004 20.3026H16.2963L18.6449 24.4195V20.3026H19.7931V26.2H18.5609L16.1523 22.011V26.2H15.004V20.3026ZM25.3064 21.3468H22.1857V22.5991H25.0504V23.6234H22.1857V25.1397H25.4505V26.2H20.9814V20.3026H25.3064V21.3468ZM27.2149 20.3026L27.995 23.6794L28.1631 24.6196L28.3351 23.6994L28.9993 20.3026H30.2996L30.9997 23.6794L31.1798 24.6196L31.3598 23.7154L32.148 20.3026H33.4003L31.7399 26.2H30.5636L29.8515 22.7512L29.6434 21.6109L29.4354 22.7512L28.7232 26.2H27.5789L25.9066 20.3026H27.2149Z" fill="white"/>
</g>
</g>
<defs>
<clipPath id="clip0_135_1184">
<rect width="48" height="48" fill="white"/>
</clipPath>
<clipPath id="clip1_135_1184">
<rect width="32" height="32" fill="white" transform="translate(8 8)"/>
</clipPath>
</defs>
</svg>
