<svg width="48" height="48" viewBox="0 0 48 48" fill="none" xmlns="http://www.w3.org/2000/svg">
<g clip-path="url(#clip0_135_1205)">
<g clip-path="url(#clip1_135_1205)">
<path d="M11.772 23.6982L15.5567 18.4128C18.7258 13.9872 24.8826 12.9685 29.3082 16.1377V16.1377C33.7339 19.3068 34.7525 25.4635 31.5834 29.8892L27.7987 35.1746" stroke="#CCC884" stroke-width="1.6"/>
<path d="M27.823 15.0739L29.5435 12.6713C29.4645 12.6303 29.3875 12.5833 29.313 12.53C28.4656 11.9231 28.2705 10.7442 28.8774 9.89669C29.4843 9.04917 30.6632 8.85417 31.5106 9.46101C32.2837 10.0146 32.8279 10.6057 32.4017 11.4255C33.0406 10.758 33.8065 11.1051 34.5796 11.6586C35.427 12.2655 35.6221 13.4444 35.0153 14.2919C34.4084 15.1394 33.2295 15.3344 32.382 14.7276C32.3076 14.6743 32.2382 14.6165 32.174 14.555L30.4535 16.9575" stroke="#CCC884" stroke-width="1.6"/>
<ellipse cx="19.6636" cy="29.6071" rx="9.01718" ry="9.85599" transform="rotate(-54.3945 19.6636 29.6071)" stroke="#CCC884" stroke-width="1.6"/>
<circle cx="19.6638" cy="29.607" r="4.2571" transform="rotate(-54.3945 19.6638 29.607)" stroke="#CCC884" stroke-width="1.6"/>
</g>
</g>
<defs>
<clipPath id="clip0_135_1205">
<rect width="48" height="48" fill="white"/>
</clipPath>
<clipPath id="clip1_135_1205">
<rect width="32" height="32" fill="white" transform="translate(8 8)"/>
</clipPath>
</defs>
</svg>
