<svg width="92" height="50" viewBox="0 0 92 50" fill="none" xmlns="http://www.w3.org/2000/svg">
<path d="M6.56615 5.45996C6.22671 7.54611 7.24508 9.63227 8.73861 11.1128C10.2321 12.5933 12.133 13.5354 14.0338 14.4775" stroke="#E6E3BD" stroke-linecap="round" stroke-linejoin="round"/>
<path d="M6.77014 5.45974C7.8563 5.25786 9.01038 5.72892 10.0287 6.19999C13.5587 7.81507 17.0887 9.90123 18.9895 13.266" stroke="#E6E3BD" stroke-linecap="round" stroke-linejoin="round"/>
<path d="M11.3866 6.06501C11.8618 5.66124 11.4544 4.65181 11.9975 4.38262C12.1333 4.31533 12.337 4.31533 12.4727 4.38262C13.2194 4.51722 13.9662 4.92099 14.5092 5.39205" stroke="#E6E3BD" stroke-linecap="round" stroke-linejoin="round"/>
<path d="M14.5771 6.06549C17.5641 5.25794 20.4154 3.77745 23.3345 2.83531C31.413 0.210797 40.1025 1.48941 48.5884 1.69129C53.2047 1.82588 57.821 1.5567 62.4373 1.15293C63.6593 1.08564 64.8813 0.951046 66.0354 1.01834C66.9858 1.08564 67.8683 1.22023 68.7508 1.42211C70.3801 1.69129 71.9415 2.02777 73.5708 2.29695C76.4899 2.83531 79.5448 3.44097 81.6493 5.52712" stroke="#E6E3BD" stroke-linecap="round" stroke-linejoin="round"/>
<path d="M84.5001 10.0358C86.333 12.5257 86.7403 15.8232 86.2651 18.9187C85.7899 21.947 84.5001 24.8407 83.1423 27.5998C82.2598 29.4168 81.2415 31.3684 81.3773 33.3872C81.3773 33.791 81.4452 34.2621 81.3773 34.6658C81.3094 35.0696 81.0378 35.4061 80.902 35.7426C79.2049 38.7708 79.748 42.4721 80.359 45.9041C80.0196 45.5004 79.6123 45.0966 79.2728 44.6928C78.5261 45.4331 78.2545 46.5771 78.526 47.5192C76.9646 47.7211 75.3353 47.8557 73.7061 47.923C74.0455 46.1733 75.6748 44.962 76.4215 43.3469C77.1683 41.7991 77.1004 40.2513 76.0821 38.8381" stroke="#E6E3BD" stroke-linecap="round" stroke-linejoin="round"/>
<path d="M84.9753 14.8141C84.8396 17.5732 84.6359 20.3323 83.8213 22.9568C83.0067 25.5813 81.5132 28.0713 79.1372 29.5518C78.3904 30.0228 77.5758 30.3593 76.897 30.965C76.2181 31.5706 75.7429 32.4455 75.8787 33.3203C76.0144 34.0605 76.6254 34.5989 76.829 35.2719C77.3042 36.4832 76.7612 37.8964 76.0144 38.9731C75.2677 40.0498 74.3852 41.1265 74.1815 42.4052C73.9779 43.5492 74.3172 44.8278 73.7063 45.8372C73.3668 46.3083 72.8917 46.6448 72.4844 47.1158C72.077 47.5196 71.8055 48.1926 72.0091 48.7309C70.6514 48.7982 69.2258 48.8655 67.8681 49.0001C68.8864 47.385 69.8368 45.6353 70.2441 43.6838C70.7193 41.1938 70.2441 38.5693 69.3615 36.214C68.479 33.8587 67.1892 31.6379 65.9672 29.3499C65.2884 28.0713 64.6774 26.6581 64.6095 25.1776C64.5416 23.226 65.4921 21.409 66.4425 19.6593" stroke="#E6E3BD" stroke-linecap="round" stroke-linejoin="round"/>
<path d="M40.5106 31.0318C42.9545 30.2916 45.4664 31.8394 47.9103 32.5796C50.7615 33.3871 53.8165 33.2526 56.5319 34.3966C56.8714 34.5312 57.2108 34.7331 57.6181 34.7331C58.0254 34.7331 58.3648 34.5985 58.7043 34.3966C61.5555 33.1853 64.6104 32.445 67.6653 32.3104" stroke="#E6E3BD" stroke-linecap="round" stroke-linejoin="round"/>
<path d="M40.4414 30.7629C40.5093 30.8975 40.5093 31.0321 40.4414 31.1667C39.6947 33.3875 38.6085 35.5409 37.8617 37.7616C37.115 39.9824 36.5719 42.405 37.1829 44.6931C37.115 44.1547 36.1645 44.222 35.9608 44.7604C35.7572 45.2314 35.9609 45.8371 36.1645 46.3082C34.671 46.3754 33.1775 46.51 31.7518 46.5773C34.06 44.2893 34.671 40.5208 33.2453 37.6271" stroke="#E6E3BD" stroke-linecap="round" stroke-linejoin="round"/>
<path d="M34.6712 21.7452C35.6216 22.9565 37.794 25.1772 37.8619 27.5326C37.9298 30.6954 35.8932 33.4545 34.1281 36.1464C32.3631 38.7709 30.6659 41.9338 31.4805 44.962C30.6659 44.8274 29.8513 45.7023 30.0549 46.5098C30.1228 46.779 30.2586 47.0482 30.1228 47.3174C30.0549 47.452 29.8512 47.5193 29.6475 47.5866C27.9504 47.9903 26.1175 48.1922 24.3524 48.2595C23.9451 47.5193 24.8955 46.779 25.5065 46.1734C27.4752 44.491 27.5431 41.5973 27.5431 39.0401C27.5431 37.2904 27.4752 35.5407 27.4752 33.8583C27.4752 32.9162 27.4073 31.9068 27 31.0319C26.5248 30.0225 25.6422 29.3495 24.8276 28.6766C21.0938 25.3118 19.9397 22.7546 20.7544 17.842" stroke="#E6E3BD" stroke-linecap="round" stroke-linejoin="round"/>
<path d="M10.1646 13.6698C9.7573 14.8138 9.21418 16.0251 8.26377 16.8327C6.36295 18.3805 3.64757 18.044 1.20366 18.3805C0.932114 19.5245 0.932114 20.7358 1.20366 21.8125C1.33943 22.4182 1.67886 23.0911 2.22195 23.4276C2.56139 23.6295 2.96869 23.6295 3.30812 23.6968C4.80162 23.966 5.95567 25.2446 7.10974 26.1867C9.62153 28.2729 12.8801 29.4169 16.1387 29.7534C19.3972 30.0899 22.1805 29.7534 25.3712 29.0804" stroke="#E6E3BD" stroke-linecap="round" stroke-linejoin="round"/>
<path d="M12.7444 24.8406C13.2875 26.1192 14.3736 27.1286 15.6634 27.7343" stroke="#E6E3BD" stroke-linecap="round" stroke-linejoin="round"/>
<path d="M2.90009 19.9281C2.96837 20.3992 3.0366 20.9375 3.10488 21.4086" stroke="#E6E3BD" stroke-linecap="round" stroke-linejoin="round"/>
<path d="M84.3648 11.7179C84.5006 12.2563 84.6363 12.7273 84.772 13.2657" stroke="#E6E3BD" stroke-linecap="round" stroke-linejoin="round"/>
<path d="M9.28217 7.00757C10.3005 7.88241 11.3188 8.75725 12.1335 9.49749" stroke="#E6E3BD" stroke-linecap="round" stroke-linejoin="round"/>
<path d="M81.9886 5.72929C82.1922 4.98904 82.5317 4.31609 83.0069 3.71043C83.2784 3.37396 83.6178 3.03748 83.9572 2.83559C84.3645 2.63371 84.8397 2.56641 85.2471 2.701C85.858 2.90289 86.1975 3.44125 86.4012 4.04691C86.5369 4.45068 86.6048 4.92175 86.8085 5.39281C87.0121 5.86388 87.3516 6.20036 87.8268 6.20036C88.1662 6.20036 88.5056 6.06577 88.7772 5.93118C89.9312 5.32552 90.067 5.32552 90.8816 4.31609" stroke="#E6E3BD" stroke-linecap="round" stroke-linejoin="round"/>
<path d="M84.4328 9.83378C84.3649 9.29542 84.5007 8.75706 84.7723 8.21869C84.9759 7.88222 85.2474 7.47845 85.5869 7.34386C86.1978 7.14197 86.8768 7.47845 87.4198 7.74763C88.1666 8.01681 89.117 8.1514 89.66 7.61304C89.9316 7.41115 90.0674 7.07468 90.1353 6.8055C90.4068 6.06525 90.6105 5.2577 90.6783 4.51746" stroke="#E6E3BD" stroke-linecap="round" stroke-linejoin="round"/>
</svg>
