<svg width="55" height="47" viewBox="0 0 55 47" fill="none" xmlns="http://www.w3.org/2000/svg">
<g clip-path="url(#clip0_141_1868)">
<path d="M39.4565 23.2484C39.4565 23.0471 39.4565 22.8458 39.4565 22.6445C39.4565 28.0792 39.6558 40.257 39.7555 40.257" stroke="#E6E3BD" stroke-miterlimit="10" stroke-linecap="round" stroke-linejoin="round"/>
<path d="M39.7554 40.257C41.0507 39.5525 42.3459 38.9486 43.6412 38.2441C47.826 36.03 50.317 34.7216 54.6014 32.6082" stroke="#E6E3BD" stroke-miterlimit="10" stroke-linecap="round" stroke-linejoin="round"/>
<path d="M53.8044 16.8073C54.203 21.6381 54.203 27.7773 54.6015 32.6081" stroke="#E6E3BD" stroke-miterlimit="10" stroke-linecap="round" stroke-linejoin="round"/>
<path d="M39.4565 22.0407C42.2464 20.7324 51.3134 17.9144 53.8044 16.7067" stroke="#E6E3BD" stroke-miterlimit="10" stroke-linecap="round" stroke-linejoin="round"/>
<path d="M24.7102 17.2098C28.895 19.122 34.1758 20.6317 39.5562 22.0407" stroke="#E6E3BD" stroke-miterlimit="10" stroke-linecap="round" stroke-linejoin="round"/>
<path d="M24.7102 17.2098C24.7102 18.8201 25.0091 19.8265 24.7102 21.4368" stroke="#E6E3BD" stroke-miterlimit="10" stroke-linecap="round" stroke-linejoin="round"/>
<path d="M27.799 37.6403C28.5961 37.6403 32.183 38.3448 32.6812 38.546C34.4747 39.1499 37.8624 39.6531 39.6558 40.257" stroke="#E6E3BD" stroke-miterlimit="10" stroke-linecap="round" stroke-linejoin="round"/>
<path d="M24.7102 17.2098C29.3932 15.3982 34.5743 12.7815 39.2573 10.97" stroke="#E6E3BD" stroke-miterlimit="10" stroke-linecap="round" stroke-linejoin="round"/>
<path d="M39.2573 10.97C39.2573 10.7687 39.5562 10.8693 39.6559 10.97C41.1504 11.6745 50.8153 15.0963 53.9041 16.8072" stroke="#E6E3BD" stroke-miterlimit="10" stroke-linecap="round" stroke-linejoin="round"/>
<path d="M1.09607 24.0536C5.28085 25.9658 10.0635 27.6767 14.6468 27.878" stroke="#E6E3BD" stroke-miterlimit="10" stroke-linecap="round" stroke-linejoin="round"/>
<path d="M14.7464 27.8779C13.9493 34.4197 12.8533 39.955 12.8533 46.4968" stroke="#E6E3BD" stroke-miterlimit="10" stroke-linecap="round" stroke-linejoin="round"/>
<path d="M1.19563 23.651C1.19563 28.1799 0.89672 33.7152 0.498169 39.7538" stroke="#E6E3BD" stroke-miterlimit="10" stroke-linecap="round" stroke-linejoin="round"/>
<path d="M0.498169 39.9551C4.38404 42.0686 8.86773 44.2827 12.7536 46.3962" stroke="#E6E3BD" stroke-miterlimit="10" stroke-linecap="round" stroke-linejoin="round"/>
<path d="M13.1522 46.4968C18.0345 44.1821 22.6178 41.3641 27.799 39.7538" stroke="#E6E3BD" stroke-miterlimit="10" stroke-linecap="round" stroke-linejoin="round"/>
<path d="M27.7989 22.6445C27.7989 28.3811 27.3007 34.0171 27.7989 39.7537" stroke="#E6E3BD" stroke-miterlimit="10" stroke-linecap="round" stroke-linejoin="round"/>
<path d="M14.7463 27.878C17.9347 27.4754 23.1159 24.2549 27.8985 22.5439" stroke="#E6E3BD" stroke-miterlimit="10" stroke-linecap="round" stroke-linejoin="round"/>
<path d="M1.09607 23.651C6.27723 21.94 10.7609 20.4304 15.8424 18.7195" stroke="#E6E3BD" stroke-miterlimit="10" stroke-linecap="round" stroke-linejoin="round"/>
<path d="M15.942 18.7195C20.8243 20.6317 22.7174 21.5375 27.8985 22.5439" stroke="#E6E3BD" stroke-miterlimit="10" stroke-linecap="round" stroke-linejoin="round"/>
<path d="M3.68661 7.24622C3.58697 13.1841 3.48733 17.0085 3.3877 22.9464" stroke="#E6E3BD" stroke-miterlimit="10" stroke-linecap="round" stroke-linejoin="round"/>
<path d="M3.68665 7.24622C8.76817 7.85007 13.9493 7.74943 18.3334 10.2655" stroke="#E6E3BD" stroke-miterlimit="10" stroke-linecap="round" stroke-linejoin="round"/>
<path d="M18.3333 10.4668C18.134 13.8886 18.6322 16.3041 18.6322 19.7259" stroke="#E6E3BD" stroke-miterlimit="10" stroke-linecap="round" stroke-linejoin="round"/>
<path d="M18.6322 9.86299C22.817 7.7495 27.201 5.93793 31.6847 4.73022" stroke="#E6E3BD" stroke-miterlimit="10" stroke-linecap="round" stroke-linejoin="round"/>
<path d="M31.6848 4.73022C31.3859 7.44757 31.1866 11.7752 31.1866 14.4925" stroke="#E6E3BD" stroke-miterlimit="10" stroke-linecap="round" stroke-linejoin="round"/>
<path d="M3.68665 7.24621C5.77904 6.23979 14.1486 1.20767 16.9385 0.503174" stroke="#E6E3BD" stroke-miterlimit="10" stroke-linecap="round" stroke-linejoin="round"/>
<path d="M16.9384 0.503174C21.8206 1.00639 27.1014 3.01923 31.6847 4.73015" stroke="#E6E3BD" stroke-miterlimit="10" stroke-linecap="round" stroke-linejoin="round"/>
</g>
<defs>
<clipPath id="clip0_141_1868">
<rect width="55" height="47" fill="white"/>
</clipPath>
</defs>
</svg>
