<svg width="32" height="48" viewBox="0 0 32 48" fill="none" xmlns="http://www.w3.org/2000/svg">
<g clip-path="url(#clip0_326_33070)">
<path d="M0.46582 23.8312C2.26946 22.5013 4.48037 21.1714 6.57491 21.8653C8.08764 22.3856 9.01855 23.8312 9.42582 25.3345C10.124 28.2255 9.07673 31.1743 7.91309 33.8919C6.74946 36.6095 5.46946 39.4427 5.76037 42.3915" stroke="#E6E3BD" stroke-linecap="round" stroke-linejoin="round"/>
<path d="M0.29126 24.2357C2.56035 23.7732 5.00399 24.3514 6.80762 25.7969" stroke="#E6E3BD" stroke-linecap="round" stroke-linejoin="round"/>
<path d="M5.46938 25.6235C3.60756 27.9364 2.26938 30.7117 1.62938 33.6028C1.2221 35.3374 1.10574 37.1876 1.57119 38.9222C2.03665 40.6569 3.1421 42.2758 4.77119 43.0275" stroke="#E6E3BD" stroke-linecap="round" stroke-linejoin="round"/>
<path d="M7.79688 38.2861C11.1132 38.0548 13.906 35.6842 16.0587 33.0822C18.2114 30.4803 19.8987 27.5893 22.4587 25.4499C25.0187 23.3106 28.8587 22.212 31.7678 23.8888C29.6732 23.5997 27.5787 24.5248 25.9496 25.9125C24.3205 27.3002 23.1569 29.0348 21.9932 30.8272" stroke="#E6E3BD" stroke-linecap="round" stroke-linejoin="round"/>
<path d="M6.92334 44.6464C9.25061 45.2824 12.2761 44.762 13.9633 43.0852C15.6506 41.3506 16.8142 39.7894 18.2106 37.8235C19.7233 35.6842 21.0615 33.3136 23.0979 31.6946" stroke="#E6E3BD" stroke-linecap="round" stroke-linejoin="round"/>
<path d="M3.08414 44.0681C2.73505 44.6463 2.44414 45.2823 2.15323 45.8605C2.09505 45.9762 2.03687 46.1496 2.03687 46.3231C2.09505 46.67 2.44414 46.9013 2.79323 47.017C3.31687 47.1904 3.8405 47.4217 4.36414 47.5952C4.59687 47.7108 4.94596 47.653 4.94596 47.4217" stroke="#E6E3BD" stroke-linecap="round" stroke-linejoin="round"/>
<path d="M5.93479 45.2825C5.58569 46.092 5.17842 46.9593 4.65479 47.7109" stroke="#E6E3BD" stroke-linecap="round" stroke-linejoin="round"/>
<path d="M3.375 43.8369C3.89864 44.5886 4.82955 45.109 5.76045 45.1668" stroke="#E6E3BD" stroke-linecap="round" stroke-linejoin="round"/>
<path d="M8.02872 38.5752C8.20326 39.7894 8.14508 41.0037 8.14508 42.2179C8.14508 42.6805 8.14508 43.143 7.97054 43.5478C7.79599 43.9525 7.4469 44.3572 6.98145 44.3572" stroke="#E6E3BD" stroke-linecap="round" stroke-linejoin="round"/>
<path d="M26.8794 3.4783C26.2975 2.90009 25.3666 2.78445 24.5521 3.01573C23.7375 3.24701 23.0394 3.70958 22.3994 4.22996C17.6285 8.04611 14.5448 13.4234 11.5194 18.6851C10.9375 19.668 10.4721 19.9571 9.59937 22.0965" stroke="#E6E3BD" stroke-linecap="round" stroke-linejoin="round"/>
<path d="M26.3557 3.24707C27.2284 3.59399 27.7521 4.4613 27.8684 5.38643C27.9848 6.31155 27.8103 7.17886 27.6357 8.10399C26.5303 12.9031 25.1921 17.2396 22.6321 21.4605" stroke="#E6E3BD" stroke-linecap="round" stroke-linejoin="round"/>
<path d="M16.4647 34.3545C15.1265 37.419 12.5665 39.9631 9.48291 41.3508" stroke="#E6E3BD" stroke-linecap="round" stroke-linejoin="round"/>
<path d="M18.1533 32.6198C18.7351 31.8681 19.317 31.1743 19.8406 30.4226" stroke="#E6E3BD" stroke-linecap="round" stroke-linejoin="round"/>
<path d="M5.58472 27.9941C4.71199 29.6709 4.07199 31.4055 3.7229 33.2558" stroke="#E6E3BD" stroke-linecap="round" stroke-linejoin="round"/>
<path d="M2.79277 36.1467C2.50187 37.5344 2.73459 38.9799 3.37459 40.1942" stroke="#E6E3BD" stroke-linecap="round" stroke-linejoin="round"/>
<path d="M6.22583 21.4604C7.04038 19.9571 7.62219 18.3381 7.79674 16.6613C8.02947 14.8689 7.85492 13.0186 7.68038 11.2262C7.50583 9.14464 7.2731 7.00528 6.22583 5.15503C9.30947 7.81477 10.9386 11.9778 10.4731 16.0253" stroke="#E6E3BD" stroke-linecap="round" stroke-linejoin="round"/>
<path d="M26.2102 1.01634C27.8393 0.900701 29.4102 2.17275 29.7011 3.7339" stroke="#E6E3BD" stroke-linecap="round" stroke-linejoin="round"/>
</g>
<defs>
<clipPath id="clip0_326_33070">
<rect width="32" height="48" fill="white"/>
</clipPath>
</defs>
</svg>
