<svg width="77" height="15" viewBox="0 0 77 15" fill="none" xmlns="http://www.w3.org/2000/svg">
<g clip-path="url(#clip0_135_2106)">
<path d="M12.9661 10.9628H9.81515V14.6171H17.1312V0.27832H11.0103L0 14.6171H5.10677L12.9661 3.7934V10.9628Z" fill="#202020"/>
<path d="M48.9309 3.86314V0.243652H35.0231V3.86314H40.0212V14.652H44.3674V3.86314H48.9309Z" fill="#202020"/>
<path d="M54.8707 9.01396V0.243652H50.7056V14.5824H55.5226L61.571 6.26453V14.652H65.9897L77 0.278455H71.8932L65.555 9.04876V0.278455V0.243652H61.2089L54.8707 9.01396Z" fill="#DC2655"/>
<path d="M28.3589 0.243652H25.8961H20.1011V14.652H24.3387V11.2065H27.1999L29.5541 14.652H34.7695L31.5461 10.4757L32.1618 9.95363C32.4878 9.71001 32.7775 9.39679 33.031 9.08356C33.2121 8.83994 33.3932 8.56152 33.5381 8.2831C33.7554 7.83066 33.9003 7.37822 34.0089 6.92579C34.0814 6.71697 34.1176 6.47335 34.1538 6.29934C34.19 6.09052 34.19 5.91651 34.19 5.74249C34.19 4.31558 33.6468 2.99307 32.7413 2.01859C31.9445 1.14852 30.858 0.556877 29.6265 0.348061L29.1195 0.278455C29.0833 0.278455 29.0108 0.278455 28.9746 0.278455C28.9022 0.278455 28.8297 0.278455 28.7573 0.278455C28.6849 0.278455 28.6124 0.278455 28.54 0.278455C28.4676 0.243652 28.4313 0.243652 28.3589 0.243652ZM29.0833 4.03716C29.3006 4.14156 29.4817 4.28078 29.6265 4.41999C29.8076 4.594 29.9163 4.80282 30.0249 5.01163C30.0974 5.22045 30.1698 5.46407 30.1698 5.70769C30.1698 5.98611 30.1336 6.22973 30.0249 6.43855C29.9525 6.64737 29.8076 6.85618 29.6628 6.99539C29.5179 7.1346 29.3368 7.27382 29.1195 7.37822C28.9022 7.44783 28.6849 7.51744 28.4313 7.51744H28.1416H25.4614H25.4252H24.3025V3.89795H28.3951C28.6486 3.89795 28.866 3.96755 29.0833 4.03716Z" fill="#202020"/>
</g>
<defs>
<clipPath id="clip0_135_2106">
<rect width="77" height="15" fill="white"/>
</clipPath>
</defs>
</svg>
