<svg xmlns="http://www.w3.org/2000/svg" width="183.712" height="49.438" viewBox="0 0 183.712 49.438">
  <g id="Сгруппировать_1373" data-name="Сгруппировать 1373" transform="translate(-248 -10065.793)">
    <g id="Сгруппировать_1360" data-name="Сгруппировать 1360" transform="translate(144 10035.709)">
      <g id="Сгруппировать_1291" data-name="Сгруппировать 1291" transform="translate(104 30.083)">
        <path id="Fill-4" d="M205.045,46.718a2.986,2.986,0,0,1-2.021-.95l-5.006-5.008s9.845-9.181,10.76-11.084c.3-.52.625-.753.92-.753.463,0,.86.579,1.014,1.535.025.163.042.324.06.489v.036l.012.07c.072.739.126,1.485.126,2.239a21.269,21.269,0,0,1-3.879,12.345l-.009-.007a2.645,2.645,0,0,1-1.977,1.088" transform="translate(-165.295 -19.119)" fill="#61bdf6" fill-rule="evenodd"/>
        <path id="Fill-5" d="M107.342,46.716a2.644,2.644,0,0,1-1.978-1.088l-.006.007a21.28,21.28,0,0,1-3.879-12.345c0-.763.054-1.514.126-2.261l.007-.048.006-.027c.017-.167.031-.335.058-.5.153-.953.547-1.531,1.009-1.531.295,0,.617.234.923.755.918,1.9,10.763,11.088,10.763,11.088l-5,5a3,3,0,0,1-2.026.95" transform="translate(-101.478 -19.117)" fill="#61bdf6" fill-rule="evenodd"/>
        <path id="Fill-6" d="M154.617,13.293l-.35-.356a1.726,1.726,0,0,0-1.217-.584,1.637,1.637,0,0,0-1.077.459l-.129.125-.355.356L145,6.8,150.822.978A3.747,3.747,0,0,1,153.154,0a2.96,2.96,0,0,1,2.132.978L161.107,6.8l-6.49,6.495" transform="translate(-130.246)" fill="#61bdf6" fill-rule="evenodd"/>
      </g>
      <path id="Fill-7" d="M105.367,3.584l-.01-.008a21.294,21.294,0,0,0-3.879,12.347c0,.758.054,1.5.126,2.237l.007.072.006.04c.017.161.031.322.058.485.25,1.563,1.146,2.119,1.932.781a20.945,20.945,0,0,1,3.605-5.265l14.836,14.847h.006a3.138,3.138,0,0,0,4.464,0l14.841-14.847a21.052,21.052,0,0,1,3.6,5.265c.781,1.339,1.682.787,1.934-.778.025-.166.042-.335.06-.5l0-.024.008-.045c.072-.747.126-1.5.126-2.263a21.286,21.286,0,0,0-3.879-12.347l-.009.008s-1.623-2.356-4-.136L125.5,17.158h-.005l-.126.125a1.528,1.528,0,0,1-2.292-.125L109.368,3.448c-2.384-2.218-4,.136-4,.136" transform="translate(2.522 28.434)" fill="#1da1f2" fill-rule="evenodd"/>
      <g id="Сгруппировать_1290" data-name="Сгруппировать 1290" transform="translate(161.79 32.967)">
        <path id="Fill-8" d="M18.082,116.632l-6.769,9.026H10.54L3.919,116.6v15.113H0V110.931H4.513l6.5,8.937,6.5-8.937H22v20.783H18.082V116.632" transform="translate(0 -110.485)" fill="#fff" fill-rule="evenodd"/>
        <path id="Fill-9" d="M78.074,132.188c-.238-1.9-1.722-2.85-3.8-2.85a3.943,3.943,0,0,0-4.1,2.85Zm-7.957,3c.238,1.811,1.811,3.117,4.365,3.117a6.042,6.042,0,0,0,3.919-1.365l2.316,2.286a8.991,8.991,0,0,1-6.294,2.375c-5.047,0-8.046-3.117-8.046-7.808,0-4.454,3.028-7.66,7.779-7.66,4.9,0,7.957,3.029,7.393,9.056Z" transform="translate(-41.613 -120.015)" fill="#fff" fill-rule="evenodd"/>
        <path id="Fill-10" d="M116.317,124.351a4.2,4.2,0,1,0,8.4,0,4.177,4.177,0,0,0-4.246-4.275A4.038,4.038,0,0,0,116.317,124.351Zm12.262-13.42v20.754h-3.384l-.238-2.019a5.326,5.326,0,0,1-4.721,2.346c-4.305,0-7.541-2.851-7.541-7.661,0-5.047,3.177-7.66,7.452-7.66,1.544,0,3.949.832,4.81,2.345v-8.105Z" transform="translate(-70.652 -110.485)" fill="#fff" fill-rule="evenodd"/>
        <path id="Fill-11" d="M197.823,128.322a10.955,10.955,0,0,1-7.9,3.088c-7.72,0-10.985-5.314-11.015-10.718-.03-5.434,3.5-10.956,11.015-10.956a10.722,10.722,0,0,1,7.63,3.177l-2.613,2.524a7.14,7.14,0,0,0-5.018-1.959c-5.017,0-7.185,3.741-7.156,7.215.03,3.444,2.019,7.036,7.156,7.036a7.653,7.653,0,0,0,5.226-2.108l2.672,2.7" transform="translate(-112.164 -109.736)" fill="#fff" fill-rule="evenodd"/>
        <path id="Fill-12" d="M238.62,121.875H244.5c5.017,0,4.988-7.363,0-7.363H238.62Zm5.879,3.592H238.62v6.116H234.7V110.8c3.265,0,6.531-.03,9.8-.03,10.154,0,10.184,14.7,0,14.7Z" transform="translate(-147.141 -110.385)" fill="#fff" fill-rule="evenodd"/>
        <path id="Fill-13" d="M291.674,127.863h4.275c4.721,0,6.591-3.444,6.5-6.829-.089-3.236-1.989-6.472-6.5-6.472h-4.275Zm14.667-6.8c.089,5.255-3.118,10.57-10.392,10.57h-8.165V110.851h8.165c7.126,0,10.3,5.077,10.392,10.214Z" transform="translate(-180.421 -110.435)" fill="#fff" fill-rule="evenodd"/>
      </g>
    </g>
    <text id="What_s_new_at_Source" data-name="What’s new at Source" transform="translate(305 10112.23)" fill="#fff" font-size="14" font-family="BasisGrotesquePro-Regular, Basis Grotesque Pro" letter-spacing="0.08em"><tspan x="0" y="0">CAREER HEALTH.</tspan></text>
  </g>
</svg>
