<svg xmlns="http://www.w3.org/2000/svg" xmlns:xlink="http://www.w3.org/1999/xlink" width="0" height="0"
     style="position:absolute">

    <symbol id="fb-ico" viewBox="0 0 15.935 15.935">
        <g transform="translate(0)">
            <path d="M197.1,32.2H182.92a.879.879,0,0,0-.879.879V47.254a.88.88,0,0,0,.879.88h7.632V41.963h-2.077V39.557h2.077V37.784a2.9,2.9,0,0,1,3.093-3.179,17.2,17.2,0,0,1,1.855.095V36.85h-1.274c-1,0-1.191.475-1.191,1.171v1.535h2.382l-.312,2.4h-2.071v6.171h4.06a.88.88,0,0,0,.88-.879V33.078A.879.879,0,0,0,197.1,32.2Z"
                  transform="translate(-182.041 -32.199)"/>
        </g>
    </symbol>
    <symbol id="inst-ico" viewBox="0 0 15.935 15.935">
        <g transform="translate(0)">
            <path d="M113.208,32.2h-6.441a4.752,4.752,0,0,0-4.747,4.747v6.441a4.752,4.752,0,0,0,4.747,4.747h6.441a4.752,4.752,0,0,0,4.747-4.747V36.946A4.752,4.752,0,0,0,113.208,32.2Zm3.144,11.188a3.144,3.144,0,0,1-3.144,3.144h-6.441a3.144,3.144,0,0,1-3.144-3.144V36.946a3.144,3.144,0,0,1,3.144-3.144h6.441a3.144,3.144,0,0,1,3.144,3.144v6.441Z"
                  transform="translate(-102.02 -32.199)"/>
            <path d="M121.685,47.742a4.121,4.121,0,1,0,4.121,4.121A4.126,4.126,0,0,0,121.685,47.742Zm0,6.64a2.518,2.518,0,1,1,2.518-2.518A2.518,2.518,0,0,1,121.685,54.382Z"
                  transform="translate(-113.718 -43.896)"/>
            <ellipse cx="0.988" cy="0.988" rx="0.988" ry="0.988" transform="translate(11.109 2.889)"/>
        </g>
    </symbol>
    <symbol id="twit-ico" viewBox="0 0 22 17">
        <path d="M21.27783,2.05843c-0.76443,0.33532 -1.57897,0.55759 -2.4282,0.6655c0.87364,-0.52161 1.54043,-1.34129 1.85391,-2.32927c-0.81454,0.48564 -1.71387,0.82867 -2.6723,1.0201c-0.77342,-0.82353 -1.87575,-1.33358 -3.07829,-1.33358c-2.33312,0 -4.21144,1.89374 -4.21144,4.2153c0,0.33404 0.02826,0.65523 0.09764,0.961c-3.50354,-0.17087 -6.60367,-1.85005 -8.68627,-4.40801c-0.36359,0.63082 -0.57686,1.35285 -0.57686,2.13013c0,1.45949 0.75158,2.75324 1.8719,3.50226c-0.67707,-0.01285 -1.34129,-0.20942 -1.90402,-0.51904c0,0.01285 0,0.02955 0,0.04625c0,2.04791 1.46077,3.74893 3.37635,4.14079c-0.34303,0.09378 -0.7169,0.13875 -1.10489,0.13875c-0.2698,0 -0.54217,-0.01541 -0.79784,-0.07194c0.54602,1.6689 2.09545,2.89585 3.93779,2.93568c-1.43379,1.1216 -3.2543,1.79738 -5.22512,1.79738c-0.3456,0 -0.67707,-0.01541 -1.00854,-0.05781c1.86676,1.20382 4.07912,1.89117 6.46492,1.89117c7.75481,0 11.99453,-6.42381 11.99453,-11.99196c0,-0.18629 -0.00642,-0.36616 -0.01542,-0.54473c0.83638,-0.59356 1.53914,-1.33487 2.11215,-2.18795z"/>
    </symbol>
    <symbol id="pinta-ico" viewBox="0 0 21 24">
        <path d="M14.5434,7.38959c1.61512,1.15362 3.59304,1.83245 5.72927,1.83245v-3.23452c-1.19242,-0.25377 -2.24807,-0.87668 -3.04183,-1.74304c-1.35857,-0.84732 -2.33747,-2.24526 -2.62444,-3.88148h-2.99491v0v16.4122c-0.00679,1.9133 -1.56039,3.46247 -3.47619,3.46247c-1.12897,0 -2.13195,-0.53779 -2.76711,-1.37094c-1.1343,-0.57215 -1.91212,-1.74687 -1.91212,-3.1035c0,-1.91875 1.55611,-3.47427 3.47604,-3.47427c0.36783,0 0.72237,0.05725 1.05492,0.16274v-3.26978c-4.12301,0.08513 -7.43897,3.45229 -7.43897,7.59344c0,2.06718 0.82578,3.94122 2.16589,5.31041c1.20909,0.81146 2.66457,1.28463 4.23042,1.28463c4.19676,0 7.59904,-3.40051 7.59904,-7.59521z"/>
    </symbol>
    <symbol id="discord-ico" viewBox="0 0 28 21">
        <path d="M18.15673,14.15954c-1.34246,0 -2.44857,-1.23211 -2.44857,-2.74485c0,-1.51308 1.08466,-2.7452 2.44857,-2.7452c1.37447,0 2.46968,1.24302 2.44823,2.7452c0,1.51273 -1.07376,2.74485 -2.44823,2.74485zM9.10381,14.15954c-1.34212,0 -2.44824,-1.23211 -2.44824,-2.74485c0,-1.51308 1.08467,-2.7452 2.44824,-2.7452c1.37481,0 2.47002,1.24302 2.44857,2.7452c0,1.51273 -1.08466,2.74485 -2.44857,2.74485zM23.09845,1.75321c-0.00749,-0.01498 -0.02009,-0.02588 -0.03542,-0.03235c-1.73648,-0.79655 -3.59828,-1.38332 -5.54522,-1.71945c-0.03575,-0.00669 -0.07174,0.01035 -0.08923,0.04223c-0.23941,0.42569 -0.5047,0.98113 -0.69064,1.41772c-2.09406,-0.31331 -4.17722,-0.31331 -6.22837,0c-0.18594,-0.44612 -0.46077,-0.99203 -0.7012,-1.41772c-0.01839,-0.03133 -0.0538,-0.04768 -0.08922,-0.04223c-1.94592,0.3351 -3.80772,0.92188 -5.54556,1.71945c-0.01499,0.00647 -0.02793,0.01737 -0.03644,0.03133c-3.53187,5.27482 -4.49938,10.41989 -4.02465,15.50128c0.00205,0.02486 0.01601,0.0487 0.03542,0.06368c2.33006,1.71093 4.58758,2.74929 6.80288,3.43788c0.03542,0.0109 0.07288,-0.00238 0.0957,-0.03133c0.52377,-0.7155 0.99101,-1.46983 1.3915,-2.26298c0.02383,-0.04665 0.00102,-0.10148 -0.047,-0.11987c-0.74104,-0.28095 -1.44667,-0.62355 -2.12539,-1.0128c-0.0538,-0.03133 -0.05789,-0.10796 -0.00851,-0.14474c0.1427,-0.10694 0.28573,-0.2183 0.42195,-0.33068c0.02486,-0.02043 0.05925,-0.02486 0.0882,-0.01192c4.45852,2.0348 9.28551,2.0348 13.69192,0c0.02895,-0.01396 0.06335,-0.00987 0.08889,0.0109c0.13656,0.11239 0.27926,0.22477 0.42331,0.3317c0.04938,0.03679 0.04598,0.11341 -0.00749,0.14474c-0.67872,0.39675 -1.38435,0.73185 -2.12641,1.01144c-0.04836,0.01839 -0.06981,0.07459 -0.04631,0.12124c0.40935,0.79212 0.87659,1.54645 1.39082,2.26195c0.0217,0.03013 0.06016,0.04314 0.0957,0.03235c2.22585,-0.68859 4.48338,-1.72694 6.81344,-3.43788c0.02044,-0.01498 0.03338,-0.0378 0.03576,-0.06266c0.56804,-5.87454 -0.95151,-10.97738 -4.0284,-15.50128z"/>
    </symbol>
    <symbol id="play-ico" viewBox="0 0 21 20">
        <path fill-rule="evenodd"
              clip-rule="evenodd"
              d="M10.5 0C4.98 0 0.5 4.48 0.5 10C0.5 15.52 4.98 20 10.5 20C16.02 20 20.5 15.52 20.5 10C20.5 4.48 16.02 0 10.5 0ZM8.5 14.5L14.5 10L8.5 5.5V14.5ZM2.5 10C2.5 14.41 6.09 18 10.5 18C14.91 18 18.5 14.41 18.5 10C18.5 5.59 14.91 2 10.5 2C6.09 2 2.5 5.59 2.5 10Z"/>
    </symbol>
    <symbol id="arrow-right-ico" width="5.475" height="8.829" viewBox="0 0 5.475 8.829">
        <path d="M.354.353,4.238,4.237.354,8.122" transform="translate(0.177 0.177)" fill="none" stroke="#20c985" stroke-miterlimit="10" stroke-width="1.5"/>
    </symbol>
</svg>



