<svg xmlns="http://www.w3.org/2000/svg" xmlns:xlink="http://www.w3.org/1999/xlink" width="0" height="0"
     style="position:absolute">

    <symbol id="fb-ico" viewBox="0 0 15.935 15.935">
        <g transform="translate(0)">
            <path d="M197.1,32.2H182.92a.879.879,0,0,0-.879.879V47.254a.88.88,0,0,0,.879.88h7.632V41.963h-2.077V39.557h2.077V37.784a2.9,2.9,0,0,1,3.093-3.179,17.2,17.2,0,0,1,1.855.095V36.85h-1.274c-1,0-1.191.475-1.191,1.171v1.535h2.382l-.312,2.4h-2.071v6.171h4.06a.88.88,0,0,0,.88-.879V33.078A.879.879,0,0,0,197.1,32.2Z" transform="translate(-182.041 -32.199)"/>
        </g>
    </symbol>
    <symbol id="inst-ico" viewBox="0 0 15.935 15.935">
        <g transform="translate(0)">
            <path d="M113.208,32.2h-6.441a4.752,4.752,0,0,0-4.747,4.747v6.441a4.752,4.752,0,0,0,4.747,4.747h6.441a4.752,4.752,0,0,0,4.747-4.747V36.946A4.752,4.752,0,0,0,113.208,32.2Zm3.144,11.188a3.144,3.144,0,0,1-3.144,3.144h-6.441a3.144,3.144,0,0,1-3.144-3.144V36.946a3.144,3.144,0,0,1,3.144-3.144h6.441a3.144,3.144,0,0,1,3.144,3.144v6.441Z" transform="translate(-102.02 -32.199)"/>
            <path d="M121.685,47.742a4.121,4.121,0,1,0,4.121,4.121A4.126,4.126,0,0,0,121.685,47.742Zm0,6.64a2.518,2.518,0,1,1,2.518-2.518A2.518,2.518,0,0,1,121.685,54.382Z" transform="translate(-113.718 -43.896)"/>
            <ellipse cx="0.988" cy="0.988" rx="0.988" ry="0.988" transform="translate(11.109 2.889)"/>
        </g>
    </symbol>


</svg>


