<svg xmlns="http://www.w3.org/2000/svg" xmlns:xlink="http://www.w3.org/1999/xlink" width="0" height="0" style="position:absolute">

    <symbol id="fb-ico" viewBox="0 0 24 24" fill="none">
        <path d="M16.0222 3.81787H14.0139C11.5746 3.81787 9.99932 5.44477 9.99932 7.96342V9.57395H7.97787C7.78914 9.57395 7.63641 9.72823 7.63641 9.91873V12.6887C7.63641 12.8792 7.78914 13.0323 7.97787 13.0323H9.99932V19.8379C9.99932 20.0272 10.1521 20.1815 10.3397 20.1815H13.187C13.3768 20.1815 13.5295 20.0272 13.5295 19.8379V13.0311H16.0211C16.2099 13.0311 16.3626 12.878 16.3626 12.6875L16.3637 9.91873C16.3632 9.87321 16.3541 9.82827 16.3368 9.78667C16.3196 9.74507 16.2945 9.70768 16.2633 9.6768C16.1979 9.61134 16.1117 9.57498 16.0222 9.57512H13.5295V8.25444C13.5295 7.47605 13.7139 7.08101 14.7219 7.08101L16.0222 7.07634C16.2099 7.07634 16.3626 6.92323 16.3626 6.73273V4.16148C16.3637 3.97215 16.211 3.81787 16.0222 3.81787Z" fill="#87BD30"/>
    </symbol>
    <symbol id="vk-ico" viewBox="0 0 24 24" fill="none">
        <path d="M18.7636 13.4815C19.361 14.1066 19.991 14.6936 20.5264 15.3809C20.7627 15.6863 20.9877 16.0016 21.1587 16.3561C21.4017 16.8602 21.1812 17.4143 20.7593 17.4449L18.1382 17.4427C17.4609 17.5038 16.9221 17.2114 16.4676 16.7161C16.1054 16.3201 15.769 15.898 15.4191 15.4899C15.2822 15.3211 15.1234 15.17 14.9466 15.0405C14.59 14.7917 14.2795 14.867 14.0748 15.2674C13.8656 15.6743 13.8183 16.1249 13.7981 16.5776C13.7699 17.2387 13.5843 17.4133 12.9633 17.4427C11.6381 17.5103 10.3804 17.2954 9.2116 16.5787C8.18114 15.9481 7.38242 15.0568 6.68607 14.0477C5.33274 12.083 4.29666 9.92402 3.36406 7.70398C3.1537 7.20433 3.30669 6.93596 3.82305 6.92724C4.67829 6.9096 5.53381 6.90887 6.38908 6.92505C6.73669 6.93051 6.96618 7.14324 7.10118 7.49561C7.56354 8.71418 8.12939 9.87384 8.84037 10.9495C9.03048 11.2353 9.22285 11.5211 9.49847 11.723C9.80221 11.9455 10.0339 11.8713 10.1768 11.5091C10.2668 11.279 10.3073 11.0313 10.3276 10.7848C10.3951 9.93711 10.4041 9.09055 10.2859 8.24617C10.2128 7.71925 9.93495 7.37779 9.44447 7.27851C9.1936 7.22724 9.23073 7.12688 9.35222 6.97415C9.56371 6.71014 9.76171 6.54541 10.1577 6.54541H13.1208C13.5877 6.64359 13.6912 6.86833 13.7553 7.37124L13.7576 10.8971C13.7519 11.0913 13.8476 11.6695 14.176 11.7982C14.437 11.8899 14.6103 11.6651 14.7678 11.4873C15.4765 10.68 15.9827 9.72765 16.4361 8.74036C16.6363 8.30617 16.8096 7.85671 16.9761 7.40506C17.0998 7.07124 17.2944 6.90651 17.6465 6.91414L20.4983 6.91742C20.5827 6.91742 20.6682 6.91742 20.7503 6.93269C21.2318 7.01996 21.3634 7.24251 21.2149 7.74543C20.9809 8.53418 20.5253 9.19092 20.081 9.85093C19.6051 10.5557 19.0966 11.2364 18.6241 11.9455C18.191 12.5935 18.2259 12.9197 18.7636 13.4815Z" fill="#87BD30"/>
    </symbol>
    <symbol id="ok-ico" viewBox="0 0 24 24" fill="none">
        <path d="M11.244 15.872C9.62574 15.7248 8.16427 15.3759 6.9148 14.5217C6.75924 14.4151 6.59867 14.3131 6.45691 14.1937C5.90996 13.7347 5.85476 13.2085 6.28756 12.666C6.65888 12.2024 7.27985 12.0772 7.92717 12.3438C8.05262 12.396 8.17054 12.4597 8.2847 12.5293C10.6155 13.9294 13.817 13.9677 16.1553 12.5919C16.3862 12.4365 16.6346 12.3102 16.9206 12.2453C17.4801 12.1201 17.9994 12.2998 18.3005 12.7263C18.6417 13.2131 18.638 13.6906 18.2165 14.0685C17.5691 14.648 16.7914 15.0688 15.927 15.362C15.1091 15.639 14.2146 15.7793 13.329 15.8708C13.462 15.9983 13.5259 16.0609 13.6087 16.1339C14.813 17.191 16.0199 18.2434 17.2191 19.3028C17.6281 19.6645 17.7134 20.1119 17.4876 20.5314C17.364 20.7585 17.1723 20.9479 16.9354 21.0772C16.6986 21.2064 16.4265 21.2701 16.1516 21.2605C15.8104 21.2396 15.5431 21.0913 15.3061 20.8826C14.3978 20.0829 13.4745 19.2993 12.5838 18.4857C12.3254 18.2492 12.2012 18.2944 11.9729 18.4996C11.0596 19.3225 10.1313 20.1316 9.19671 20.9359C8.77771 21.2976 8.27968 21.3625 7.79294 21.1562C7.27609 20.9359 6.94741 20.4758 6.9725 20.0122C6.99007 19.6992 7.16695 19.4593 7.41157 19.2437C8.60334 18.2052 9.79008 17.1632 10.9781 16.1224C11.0571 16.0528 11.1299 15.9798 11.244 15.872ZM12.003 12.2059C9.20549 12.1966 6.91354 10.05 6.9286 7.45604C6.94616 4.83309 9.24061 2.72011 12.0645 2.72707C14.8946 2.73402 17.1652 4.87829 17.1514 7.52791C17.1363 10.1161 14.8281 12.2152 12.003 12.2059ZM14.5433 7.46184C14.5445 7.15797 14.4806 6.85688 14.3555 6.57587C14.2303 6.29486 14.0463 6.03948 13.8139 5.82439C13.5816 5.60931 13.3056 5.43875 13.0017 5.32254C12.6978 5.20632 12.372 5.14673 12.0431 5.14719C11.7113 5.14639 11.3825 5.20667 11.0761 5.32453C10.7697 5.44238 10.4918 5.61545 10.2586 5.83362C10.0254 6.05179 9.84155 6.3107 9.71782 6.59523C9.59408 6.87976 9.53293 7.18421 9.53793 7.49082C9.53924 7.7947 9.60552 8.09534 9.73298 8.37548C9.86044 8.65562 10.0466 8.90972 10.2806 9.1232C10.5147 9.33667 10.7921 9.5053 11.097 9.61941C11.4018 9.73351 11.728 9.79083 12.0569 9.78808C12.386 9.78779 12.7117 9.72726 13.0152 9.60998C13.3188 9.4927 13.5942 9.321 13.8255 9.1048C14.0568 8.8886 14.2395 8.6322 14.3629 8.35039C14.4863 8.06859 14.5481 7.76698 14.5446 7.463L14.5433 7.46184Z" fill="#87BD30"/>
    </symbol>
    <symbol id="insta-ico" viewBox="0 0 24 24" fill="none">
        <path d="M8.98689 5H15.4155C16.5521 5 17.6422 5.45153 18.4459 6.25526C19.2496 7.05898 19.7012 8.14907 19.7012 9.28571V15.7143C19.7012 16.8509 19.2496 17.941 18.4459 18.7447C17.6422 19.5485 16.5521 20 15.4155 20H8.98689C7.85024 20 6.76016 19.5485 5.95643 18.7447C5.1527 17.941 4.70117 16.8509 4.70117 15.7143V9.28571C4.70117 8.14907 5.1527 7.05898 5.95643 6.25526C6.76016 5.45153 7.85024 5 8.98689 5ZM12.2012 15.7143C13.0537 15.7143 13.8712 15.3756 14.474 14.7728C15.0768 14.17 15.4155 13.3525 15.4155 12.5C15.4155 11.6475 15.0768 10.83 14.474 10.2272C13.8712 9.62436 13.0537 9.28571 12.2012 9.28571C11.3487 9.28571 10.5311 9.62436 9.92833 10.2272C9.32553 10.83 8.98689 11.6475 8.98689 12.5C8.98689 13.3525 9.32553 14.17 9.92833 14.7728C10.5311 15.3756 11.3487 15.7143 12.2012 15.7143ZM15.8912 9.76143C16.0189 9.76571 16.1461 9.74426 16.2654 9.69835C16.3846 9.65244 16.4934 9.583 16.5852 9.49418C16.6771 9.40536 16.7501 9.29897 16.8 9.18134C16.8499 9.0637 16.8756 8.93724 16.8756 8.80946C16.8756 8.68169 16.8499 8.55522 16.8 8.43759C16.7501 8.31996 16.6771 8.21357 16.5852 8.12475C16.4934 8.03592 16.3846 7.96649 16.2654 7.92058C16.1461 7.87467 16.0189 7.85321 15.8912 7.8575C15.6442 7.86579 15.4102 7.96971 15.2384 8.14733C15.0666 8.32496 14.9706 8.56238 14.9706 8.80946C14.9706 9.05655 15.0666 9.29397 15.2384 9.47159C15.4102 9.64922 15.6442 9.75314 15.8912 9.76143Z" fill="#87BD30"/>
    </symbol>
    <symbol id="header-logo" viewBox="0 0 170 46" fill="none">
        <g clip-path="url(#clip0_171_14465)">
            <rect width="170" height="46.1839" fill="#ECEDED"/>
            <path d="M4.85193 2.15649L51.9344 3.68398L42.7695 42.2305H4.85193V2.15649Z" fill="white"/>
            <path fill-rule="evenodd" clip-rule="evenodd" d="M0 23.092V46.1839L22.7779 46.1824L45.5557 46.181L53.7095 28.8222C58.1941 19.2749 63.078 8.88414 64.5626 5.73176L67.2618 0H33.631H0V23.092ZM42.0649 5.9602C42.8855 6.42617 43.9699 7.1219 44.4746 7.50622C45.9985 8.66708 47.5327 10.4849 48.1049 11.6808C48.5754 12.6641 48.7896 13.3879 48.7896 14.3763C48.7896 15.2748 48.6847 16.0057 48.1049 17.1677C47.1355 19.1101 45.5224 20.5322 43.1834 21.5072C42.0925 21.9618 39.5485 22.658 38.3071 22.8418L37.5546 22.9529L35.5303 26.0327C34.4168 27.7265 33.0392 29.8917 32.4688 30.8443C31.2734 32.8406 29.9654 35.4336 29.4565 36.8155L29.1044 37.7719H23.5467C20.4901 37.7719 17.9891 37.7417 17.9891 37.7047C17.9891 37.6678 18.3281 36.8363 18.7425 35.8569C20.0344 32.8036 21.9415 29.5138 24.9041 25.2286L26.4488 22.9942L25.009 22.7039C23.1508 22.3291 20.0011 21.2891 18.2191 20.4623C16.6311 19.7255 14.1399 18.2722 13.8291 17.9014C13.6567 17.6955 13.9897 17.112 15.8299 14.394C17.0442 12.6008 18.0829 11.0825 18.1382 11.02C18.1937 10.9575 18.6887 11.2036 19.2383 11.5669C20.8057 12.6031 23.3935 13.7786 25.4846 14.4044C28.4539 15.2931 30.5627 15.5752 34.146 15.5633C36.5997 15.5552 37.5593 15.4835 38.8563 15.2112C40.8886 14.7845 42.357 14.0269 43.0573 13.0438C43.5141 12.4025 43.7579 12.196 43.7579 10.9619C43.7579 9.76298 43.4943 9.5162 42.997 8.51583C42.665 7.84781 41.9959 6.92644 41.3528 6.25133C40.9725 5.73176 40.3371 5.11322 40.4207 5.11322C40.5043 5.11322 41.2442 5.49441 42.0649 5.9602ZM21.6012 24.2614C21.4746 24.3499 21.1956 25.0416 20.3964 26.2059L19.1385 28.1237L18.6256 27.5933C18.3487 27.2494 17.916 26.4764 17.7008 26.0571C17.0719 24.5296 17.1617 22.9942 17.1617 22.9942C17.1617 22.9942 18.1071 23.5061 19.408 23.7209C20.5808 24.1099 21.4926 24.2241 21.6012 24.2614Z" fill="#97C008"/>
            <path fill-rule="evenodd" clip-rule="evenodd" d="M128.661 17.4108C129.765 16.3609 130.923 15.6992 132.298 15.3327C133.415 15.0346 135.432 15.0201 136.501 15.3022C139.686 16.143 142.083 18.7311 142.613 21.9013C142.846 23.2903 142.588 24.9897 141.935 26.3802C141.678 26.9263 141.037 27.8345 140.51 28.3983C139.813 29.1435 139.196 29.5994 138.25 30.068C135.733 31.3158 133.229 31.3402 130.754 30.1411C129.058 29.319 127.774 28.0331 126.966 26.3472C126.414 25.1979 126.342 24.8926 126.284 23.4737C126.237 22.3129 126.296 21.6252 126.503 20.9151C126.926 19.4643 127.526 18.4898 128.661 17.4108ZM146.114 17.2984C147.209 16.2949 148.295 15.6861 149.62 15.3327C150.668 15.0531 152.589 15.014 153.698 15.2495C154.743 15.4717 156.637 16.4081 156.7 16.7347C156.727 16.8744 156.441 17.6402 156.064 18.4366C155.391 19.8602 155.373 19.88 155.018 19.6202C154.819 19.4749 154.326 19.2014 153.923 19.0124C152.883 18.5256 151.112 18.5288 149.993 19.0195C149.535 19.2202 148.947 19.5847 148.687 19.8293C147.522 20.9245 147 22.6477 147.395 24.0936C147.694 25.1903 148.553 26.29 149.534 26.8321C151.054 27.6724 153.188 27.6197 154.596 26.7074L155.201 26.315L155.899 27.803C156.283 28.6213 156.559 29.3878 156.514 29.5065C156.372 29.8714 154.703 30.578 153.326 30.8561C152.281 31.067 151.78 31.0865 150.839 30.9521C150.19 30.8595 149.233 30.6237 148.711 30.4277C146.721 29.6799 144.824 27.804 144.074 25.8397C143.617 24.6437 143.462 22.528 143.745 21.3273C144.084 19.8847 145.009 18.3115 146.114 17.2984ZM69.2915 18.3772V16.8102V15.2433H75.7043H82.1171V16.8102V18.3772H79.8684H77.6198V24.645V30.9128H75.7876H73.9553V24.645V18.3772H71.6234H69.2915ZM84.1438 17.1401C84.4202 16.5051 84.9103 15.3648 84.9103 15.3648C84.9103 15.3648 86.0784 15.2749 87.1582 15.2433C89.5737 15.2433 90.7244 15.4547 92.1195 16.1547C93.282 16.738 94.2171 17.7224 94.8342 19.012C95.1799 19.7346 95.3629 20.5242 95.3703 21.3251L95.4092 25.5109L95.4592 30.9128H93.6186H91.6984V30.5005V30.0881C91.6546 30.0881 90.5709 30.4533 90.5709 30.4533L89.313 30.8567C89.313 30.8567 88.4951 30.8996 87.7548 30.8622C86.4756 30.7974 85.9374 30.6877 85.1209 30.3248C84.484 30.0418 83.8753 29.6149 83.5162 29.1994C82.0531 27.5068 82.1534 24.6057 83.7258 23.1282C83.9861 22.8836 84.5739 22.513 85.032 22.3045C85.7767 21.9658 86.1646 21.92 88.6964 21.8708C90.2538 21.8408 91.7779 21.8708 91.7779 21.8708C91.7779 21.8708 91.4844 20.2151 91.0933 19.6711C90.9189 19.4287 90.4207 19.0579 89.9861 18.8474C89.2851 18.5076 88.8833 18.455 86.4186 18.3797H83.6524L84.1438 17.1401ZM97.9408 30.94V23.0916V15.2433H101.847C103.995 15.2433 106.124 15.322 106.577 15.4181C107.808 15.6797 109.088 16.5108 109.65 17.4134C110.481 18.7468 110.441 20.7167 109.557 22.0156L109.18 22.5702L109.879 23.2625C110.354 23.7337 110.661 24.2325 110.839 24.8246C111.167 25.9205 111.167 26.5044 110.837 27.6044C110.48 28.7956 109.372 29.957 108.125 30.447C107.248 30.7919 106.878 30.8205 102.563 30.8782L97.9408 30.94ZM112.848 30.8303L112.805 23.0291L112.762 15.2276L117.057 15.2767L120.169 15.3122C120.952 15.3212 121.729 15.4581 122.468 15.7176C123.772 16.3536 124.78 17.5531 125.162 18.6632C125.497 19.6372 125.497 21.2076 125.162 22.3241C124.966 22.9802 124.666 23.4328 123.955 24.1479C122.626 25.4842 121.684 25.809 118.808 25.9235L116.605 26.011L116.559 28.4207L116.513 30.8303H114.681H112.848ZM138.958 23.095C138.958 21.2841 138.038 19.8798 136.338 19.096C135.276 18.6063 133.652 18.5723 132.659 19.0188C130.959 19.7833 129.923 21.3227 129.927 23.078C129.93 24.6854 130.746 26.0538 132.205 26.9009C132.77 27.2285 133.254 27.3548 134.168 27.4129C135.207 27.479 135.509 27.4317 136.274 27.083C137.99 26.3007 138.958 24.8634 138.958 23.095ZM91.7779 27.614V26.047V24.4801L89.4876 24.4867C86.9411 24.4941 86.4658 24.6303 86.122 25.4522C85.85 26.1023 86.0362 26.8693 86.5664 27.2821C86.9483 27.5797 87.2398 27.614 89.3852 27.614H91.7779ZM105.666 24.4398H101.533V27.6745H105.666C106.559 27.6745 107.283 26.9504 107.283 26.0572C107.283 25.164 106.559 24.4398 105.666 24.4398ZM101.533 18.5096H104.947C105.84 18.5096 106.565 19.2337 106.565 20.1269C106.565 21.0202 105.84 21.7443 104.947 21.7443H101.533V18.5096ZM119.634 18.3332H116.539V22.721H119.634C120.845 22.721 121.827 21.7387 121.827 20.5271C121.827 19.3155 120.845 18.3332 119.634 18.3332Z" fill="#565757"/>
        </g>
    </symbol>
    <symbol id="footer-bottom-logo" viewBox="0 0 77 15" fill="none">
        <g clip-path="url(#clip0_135_2106)">
            <path d="M12.9661 10.9628H9.81515V14.6171H17.1312V0.27832H11.0103L0 14.6171H5.10677L12.9661 3.7934V10.9628Z" fill="#202020"/>
            <path d="M48.9309 3.86314V0.243652H35.0231V3.86314H40.0212V14.652H44.3674V3.86314H48.9309Z" fill="#202020"/>
            <path d="M54.8707 9.01396V0.243652H50.7056V14.5824H55.5226L61.571 6.26453V14.652H65.9897L77 0.278455H71.8932L65.555 9.04876V0.278455V0.243652H61.2089L54.8707 9.01396Z" fill="#DC2655"/>
            <path d="M28.3589 0.243652H25.8961H20.1011V14.652H24.3387V11.2065H27.1999L29.5541 14.652H34.7695L31.5461 10.4757L32.1618 9.95363C32.4878 9.71001 32.7775 9.39679 33.031 9.08356C33.2121 8.83994 33.3932 8.56152 33.5381 8.2831C33.7554 7.83066 33.9003 7.37822 34.0089 6.92579C34.0814 6.71697 34.1176 6.47335 34.1538 6.29934C34.19 6.09052 34.19 5.91651 34.19 5.74249C34.19 4.31558 33.6468 2.99307 32.7413 2.01859C31.9445 1.14852 30.858 0.556877 29.6265 0.348061L29.1195 0.278455C29.0833 0.278455 29.0108 0.278455 28.9746 0.278455C28.9022 0.278455 28.8297 0.278455 28.7573 0.278455C28.6849 0.278455 28.6124 0.278455 28.54 0.278455C28.4676 0.243652 28.4313 0.243652 28.3589 0.243652ZM29.0833 4.03716C29.3006 4.14156 29.4817 4.28078 29.6265 4.41999C29.8076 4.594 29.9163 4.80282 30.0249 5.01163C30.0974 5.22045 30.1698 5.46407 30.1698 5.70769C30.1698 5.98611 30.1336 6.22973 30.0249 6.43855C29.9525 6.64737 29.8076 6.85618 29.6628 6.99539C29.5179 7.1346 29.3368 7.27382 29.1195 7.37822C28.9022 7.44783 28.6849 7.51744 28.4313 7.51744H28.1416H25.4614H25.4252H24.3025V3.89795H28.3951C28.6486 3.89795 28.866 3.96755 29.0833 4.03716Z" fill="#202020"/>
        </g>
    </symbol>
    <symbol id="marker-ico" viewBox="0 0 35 35" fill="none">
        <path fill-rule="evenodd" clip-rule="evenodd" d="M8.05519 23.4574L17.473 32.9761L26.7527 23.2887C31.8536 17.9636 31.5295 9.47213 26.0375 4.5514C21.1431 0.166132 13.7481 0.109083 8.78393 4.41524C3.08461 9.35914 2.74866 18.0941 8.05519 23.4574ZM17.3758 18.6746C19.7411 18.6746 21.6586 16.7571 21.6586 14.3917C21.6586 12.0264 19.7411 10.1089 17.3758 10.1089C15.0104 10.1089 13.0929 12.0264 13.0929 14.3917C13.0929 16.7571 15.0104 18.6746 17.3758 18.6746Z" fill="#36312F"/>
    </symbol>
    <symbol id="search-ico" viewBox="0 0 32 32" fill="none">
        <path d="M15.2821 26.2309C21.513 26.2309 26.5641 21.1797 26.5641 14.9488C26.5641 8.71789 21.513 3.66675 15.2821 3.66675C9.05115 3.66675 4 8.71789 4 14.9488C4 21.1797 9.05115 26.2309 15.2821 26.2309Z" stroke="#202020" stroke-width="2" stroke-miterlimit="10" stroke-linecap="round" stroke-linejoin="round"/>
        <path d="M22.4614 24.1797L28.6153 30.3335" stroke="#202020" stroke-width="2" stroke-miterlimit="10" stroke-linecap="round" stroke-linejoin="round"/>
    </symbol>

    <symbol id="new-ico" viewBox="0 0 32 32" fill="none">
        <path d="M14.8526 2.15391C15.4923 1.53491 16.5077 1.53491 17.1474 2.15391L19.0152 3.96128C19.6583 4.58363 20.5359 4.90302 21.4286 4.83969L24.0211 4.65576C24.9091 4.59276 25.6869 5.24544 25.779 6.13081L26.0481 8.71593C26.1407 9.60609 26.6077 10.4148 27.3322 10.9401L29.4365 12.4657C30.1572 12.9882 30.3335 13.9881 29.835 14.7256L28.3794 16.8789C27.8782 17.6203 27.716 18.54 27.9334 19.4081L28.5648 21.9294C28.781 22.7929 28.2733 23.6722 27.4174 23.9167L24.9182 24.6306C24.0577 24.8764 23.3423 25.4767 22.9508 26.2814L21.8138 28.6186C21.4244 29.4191 20.4703 29.7664 19.6574 29.4035L17.2841 28.3439C16.4669 27.9791 15.5331 27.9791 14.7159 28.3439L12.3426 29.4035C11.5297 29.7664 10.5756 29.4191 10.1862 28.6186L9.04917 26.2814C8.65766 25.4767 7.9423 24.8764 7.08176 24.6306L4.58263 23.9167C3.72671 23.6722 3.21902 22.7929 3.43524 21.9294L4.06657 19.4081C4.28396 18.54 4.12181 17.6203 3.6206 16.8789L2.16503 14.7256C1.66651 13.9881 1.84283 12.9882 2.56351 12.4657L4.66776 10.9401L4.22754 10.3329L4.66776 10.9401C5.39233 10.4148 5.85925 9.60609 5.9519 8.71593L6.22096 6.13081C6.31311 5.24544 7.09094 4.59276 7.97886 4.65576L10.5714 4.83969C11.4641 4.90302 12.3417 4.58363 12.9848 3.96129L14.8526 2.15391Z" stroke="white" stroke-width="1.5"/>
        <path d="M12.0668 13.8V18H11.2688L9.1748 15.45V18H8.2148V13.8H9.0188L11.1068 16.35V13.8H12.0668ZM16.3125 17.22V18H13.0605V13.8H16.2345V14.58H14.0265V15.492H15.9765V16.248H14.0265V17.22H16.3125ZM23.3753 13.8L22.0013 18H20.9573L20.0333 15.156L19.0793 18H18.0413L16.6613 13.8H17.6693L18.6173 16.752L19.6073 13.8H20.5073L21.4673 16.776L22.4453 13.8H23.3753Z" fill="white"/>
    </symbol>
    <symbol id="video-ico" viewBox="0 0 10 12" fill="none">
        <path d="M9 4.26795C10.3333 5.03775 10.3333 6.96225 9 7.73205L3 11.1962C1.66667 11.966 1.33894e-06 11.0037 1.40624e-06 9.4641L1.70908e-06 2.5359C1.77638e-06 0.996295 1.66667 0.0340469 3 0.803847L9 4.26795Z" fill="white"/>
    </symbol>
    <symbol id="arrow-next" width="42" height="12" viewBox="0 0 42 12">
        <path d="M1.43506 5.28613C1.02085 5.28613 0.685059 5.62192 0.685059 6.03613C0.685059 6.45035 1.02085 6.78613 1.43506 6.78613V5.28613ZM41.4004 6.56646C41.6933 6.27357 41.6933 5.7987 41.4004 5.5058L36.6275 0.732832C36.3346 0.439939 35.8597 0.439939 35.5668 0.732832C35.2739 1.02573 35.2739 1.5006 35.5668 1.79349L39.8095 6.03613L35.5668 10.2788C35.2739 10.5717 35.2739 11.0465 35.5668 11.3394C35.8597 11.6323 36.3346 11.6323 36.6275 11.3394L41.4004 6.56646ZM1.43506 6.78613H40.8701V5.28613H1.43506V6.78613Z"/>
    </symbol>
    <symbol id="arrow-prev" width="42" height="12" viewBox="0 0 42 12">
        <path d="M40.4351 6.78613C40.8493 6.78613 41.1851 6.45035 41.1851 6.03613C41.1851 5.62192 40.8493 5.28613 40.4351 5.28613L40.4351 6.78613ZM0.469669 5.5058C0.176777 5.79869 0.176777 6.27357 0.469669 6.56646L5.24264 11.3394C5.53553 11.6323 6.01041 11.6323 6.3033 11.3394C6.59619 11.0465 6.59619 10.5717 6.3033 10.2788L2.06066 6.03613L6.3033 1.79349C6.5962 1.5006 6.5962 1.02572 6.3033 0.732829C6.01041 0.439936 5.53553 0.439935 5.24264 0.732829L0.469669 5.5058ZM40.4351 5.28613L1 5.28613L1 6.78613L40.4351 6.78613L40.4351 5.28613Z"/>
    </symbol>


</svg>


