<svg id="Layer_1" data-name="Layer 1" xmlns="http://www.w3.org/2000/svg" viewBox="0 0 305.19 44.88"><path d="M87.21.78V0c-24.78,0-34.41,26.25-37,35.31.72-14,6.06-28.44,7.05-28.44V6.09c-2.13,0-3.78,2.64-6.75,7.38-3.78,6-8.94,14.7-15.84,21.3C-3.27,17.25-10.08,44.88,14.28,44.88c8.1,0,14.88-3.9,20.52-9.18,1.23.57,2.49,1.2,3.78,1.86l.36-.72c-1.2-.63-2.37-1.2-3.51-1.74,6.9-6.66,12-15.33,15.75-21.21,2.4-3.81,3.81-6.06,5.13-6.75-2.34,3.93-7,18.45-7,31.32h.48l.36.09S57.87.78,87.21.78ZM14.28,44.1c-22.92,0-16.65-25.47,19.77-8.76C28.59,40.41,22.05,44.1,14.28,44.1Z"/><polygon points="67.77 28.14 69.33 27.12 68.91 26.46 67.35 27.48 67.77 28.14"/><path d="M103.32,34.65c-1.92,0-2.73-.81-3.54-3.54l-.24-1a18.86,18.86,0,0,0,6.09-2.88l-.42-.66a17.49,17.49,0,0,1-6,2.82l6.45-10L105,19l-8,12.4c-5.73,2.55-14.64,3.64-16,2C79.77,31.92,82.17,29,84.54,29c1.41,0,1.5.69.12,1.92l.51.57c1.89-1.65,1.56-3.27-.63-3.27a5.06,5.06,0,0,0-4.43,3.14A29.45,29.45,0,0,1,68.76,34.2c-3.3,0-4.83-.66-4.83-1.92,0-.81.45-1.5,1.68-2.55l-.51-.6,0,0a23,23,0,0,1-4.41,2.19l.3.72c1-.45,1.86-.81,2.55-1.14a2.85,2.85,0,0,0-.36,1.35c0,1.83,1.89,2.7,5.61,2.7A30.69,30.69,0,0,0,79.9,32.34a2.16,2.16,0,0,0,.5,1.53C82,35.76,90.14,35,96.27,32.55L95.34,34l.66.42,2.67-4.14h.09L99,31.35c.9,3,2,4.08,4.29,4.08C106.74,35.43,113,32,113,32l-.36-.66S106.53,34.65,103.32,34.65Z"/><path d="M215,34.53c-.93,0-1.32-.27-1.32-.87a9.46,9.46,0,0,1,1.5-3.63l-.24-.15-.36-.36-1,1a2,2,0,0,0-1.92-1.17,4.23,4.23,0,0,0-3.19,2.05c-7.71,3.47-11.12,4.61-11.78,4.13s0-2.1,2.91-5.88c1.62-2.16,2.67-3.48,1.92-4.08-1-.84-4.62,1.41-8.91,5.1a59.47,59.47,0,0,0,4.74-7.08c2-3.72,3.21-6.6,2-7.08-1.5-.6-4.2,1.38-8.37,5.82-1.56,1.68-3.3,3.69-5.28,6.06,1.8-3.06,3.66-6.6,5.19-9.87,3.12-6.69,4.17-10.62,2.73-11.49-1.26-.75-3.15.93-8.7,7.29-1.8,2-3.63,4.38-5.55,6.84a114.69,114.69,0,0,1-12,13.74c-38.13-17.7-45,10-20.58,10,8.22,0,14.94-3.87,20.7-9.09,1.17.54,2.34,1.14,3.57,1.77l.36-.72c-1.11-.57-2.22-1.14-3.3-1.62A119.16,119.16,0,0,0,180,21.6c1.92-2.46,3.75-4.77,5.55-6.81,5.16-5.91,7-7.53,7.68-7.14.87.51-.21,4.53-3,10.5a114.87,114.87,0,0,1-8.7,15.42,2.62,2.62,0,0,1-.24.3v0l.63.45c3.78-4.83,7-8.7,9.66-11.52,3.84-4.11,6.48-6.06,7.53-5.64.3.12-.6,2.7-2.37,6A69.7,69.7,0,0,1,189,33.93l.3.27.27.27h0l.15-.18c5.13-4.8,10.65-8.73,11.4-8.16a28.67,28.67,0,0,1-2.07,3c-3.21,4.23-4.05,6.09-2.73,7,1,.72,4.1-.29,11.72-3.69a2.78,2.78,0,0,0-.11.75c0,.75.36,1.41,1,1.41,1.2,0,3.12-1.53,4.53-2.85a5.17,5.17,0,0,0-.48,1.89c0,1.05.78,1.65,2.1,1.65,2,0,6.81-1.8,10.23-3.24l-.3-.72C220.2,33.36,216.54,34.53,215,34.53ZM146.82,44.1c-23,0-16.68-25.56,20-8.67C161.16,40.44,154.68,44.1,146.82,44.1Zm62.07-10.26c-.06,0-.18-.3-.18-.63a3.66,3.66,0,0,1,3-3.12,1.25,1.25,0,0,1,1.29,1C211.68,32.34,209.88,33.84,208.89,33.84Z"/><polygon points="268.8 27.12 268.38 26.46 266.82 27.48 267.24 28.14 268.8 27.12"/><path d="M304.83,31.35c-3,1.44-6.72,2.85-10.26,2.85-2.22,0-3.27-.48-3.27-1.38a5,5,0,0,1,1-2.07c.81-1.26,1.08-2.13,0-2.13A7.32,7.32,0,0,0,290,29.67a23.62,23.62,0,0,0-2.7,1.95c.72-1.29,1.2-2.58.75-3.06-.69-.75-1.77-.27-8.34,2.79l.15.37-.18-.37a29.45,29.45,0,0,1-11.4,2.85c-3.3,0-4.83-.66-4.83-1.92,0-.81.45-1.5,1.68-2.55l-.51-.6,0,0a23,23,0,0,1-4.41,2.19l.15.36-.18-.36s-10,5-13.23,5c-4.8,0-2.4-4.89,2.07-9.78,1-1.05,2-2.13,3.12-3.15.78-.09,1.59-.18,2.4-.3a34.83,34.83,0,0,1,3.9-.36c1.23,0,1.77.21,1.77.63h.78c0-1-.87-1.41-2.55-1.41a35.51,35.51,0,0,0-4,.36l-1.29.18c1.08-1,2.22-1.95,3.36-2.82l-.48-.6c-1.44,1.11-2.88,2.31-4.23,3.57-.51,0-1,.06-1.44.06-1.44,0-2-.27-2-.81h-.78c0,1.08,1,1.59,2.82,1.59h.54c-.87.84-1.68,1.68-2.46,2.52a26.22,26.22,0,0,0-3.89,5.29c-4.32,2.09-9.88,1.49-9.88-.94a1.55,1.55,0,0,1,.69-1.44q.72,0,.72.54h.78c0-.87-.69-1.32-1.71-1.32A5.08,5.08,0,0,0,232,29.79a2.49,2.49,0,0,0,.18-.84.73.73,0,0,0-.75-.81c-.48,0-1.11.3-2.91,1.32A34.91,34.91,0,0,1,225,31.35l.3.72a36.36,36.36,0,0,0,3.63-1.92,10,10,0,0,1,2.49-1.23v0c0,.78-1.08,2.52-1.95,3.78-.27.36-.48.69-.66,1s-.33.48-.36.51l.66.42h0l.15-.27a15.78,15.78,0,0,0,1.08-1.56A12.12,12.12,0,0,1,234,29.25a2.8,2.8,0,0,0-.24,1.17c0,3,5.39,3.93,10.15,2-1.16,2.91-.22,4.71,2.93,4.71,3.45,0,13.59-5.1,13.59-5.1h0c1-.45,1.84-.8,2.53-1.13a2.85,2.85,0,0,0-.36,1.35c0,1.83,1.89,2.7,5.61,2.7A31,31,0,0,0,280,32.07h0c6.37-3,7.21-3.23,7.48-3s-1.56,3.63-2.76,4.83l-.06.06.54.54a32.27,32.27,0,0,1,5.16-4.17,9.21,9.21,0,0,1,1.77-.93,5.83,5.83,0,0,1-.51.9,5.5,5.5,0,0,0-1.08,2.49c0,1.47,1.41,2.16,4.05,2.16,3.66,0,7.53-1.47,10.62-2.91Z"/></svg>