<svg width="220" height="250" viewBox="0 0 220 250" fill="none" xmlns="http://www.w3.org/2000/svg">
<g clip-path="url(#clip0_368_21301)">
<g clip-path="url(#clip1_368_21301)">
<path d="M112.243 157.078C116.454 148.928 125.624 149.101 131.934 149.587C129.351 150.584 127.057 151.371 125.421 153.668C123.679 155.82 122.043 158.116 119.422 159.363C116.734 160.216 113.244 159.664 112.243 157.078Z" stroke="#E6E3BD" stroke-width="1.5" stroke-miterlimit="10" stroke-linecap="round" stroke-linejoin="round"/>
<path d="M111.39 156.816C121.437 147.289 114.999 140.266 114.333 133.901C111.649 137.182 111.548 139.465 109.678 143.258C108.501 145.883 108.189 147.878 108.259 150.699C108.329 153.521 108.948 155.28 111.39 156.816Z" stroke="#E6E3BD" stroke-width="1.5" stroke-miterlimit="10" stroke-linecap="round" stroke-linejoin="round"/>
<path d="M101.835 126.431C103.541 118.78 111.686 118.151 117.288 118.27C115.204 119.346 113.513 120.357 112.558 122.378C111.604 124.399 110.61 126.669 108.632 127.889C106.797 129.004 103.517 128.741 101.835 126.431Z" stroke="#E6E3BD" stroke-width="1.5" stroke-miterlimit="10" stroke-linecap="round" stroke-linejoin="round"/>
<path d="M101.086 126.312C107.526 116.982 100.04 110.943 97.8667 105.234C96.3629 108.318 96.7989 110.431 96.1091 114.027C95.7194 116.521 95.9451 118.345 96.6967 120.891C97.6585 123.726 98.7101 125.17 101.086 126.312Z" stroke="#E6E3BD" stroke-width="1.5" stroke-miterlimit="10" stroke-linecap="round" stroke-linejoin="round"/>
<path d="M124.273 140.584C124.791 144.626 128.258 146.963 130.906 146.359C133.555 145.756 137.065 142.095 137.704 139.641C138.004 138.538 138.016 137.646 138.067 136.504C135.523 137.252 132.547 138.314 130.397 138.996C128.142 139.534 124.09 140.938 124.273 140.584ZM124.273 140.584C125.516 138.353 125.51 125.32 123.313 121.395C120.142 123.705 117.879 127.563 117.754 131.632C117.524 135.556 119.171 140.543 124.273 140.584Z" stroke="#E6E3BD" stroke-width="1.5" stroke-miterlimit="10" stroke-linecap="round" stroke-linejoin="round"/>
<path d="M69.7333 176.549C70.7885 180.42 74.5823 182.298 77.0208 181.406C79.4593 180.514 82.4044 176.38 82.689 173.742C82.845 172.745 82.7516 171.708 82.6582 170.671C80.3248 171.707 77.415 173.164 75.4751 174.135C73.5351 175.105 69.6943 176.798 69.7333 176.549ZM69.7333 176.549C70.6216 174.134 68.7921 161.324 66.1631 157.714C63.3077 160.457 61.6479 164.538 61.9163 168.541C62.3288 172.439 64.6577 177.151 69.7333 176.549Z" stroke="#E6E3BD" stroke-width="1.5" stroke-miterlimit="10" stroke-linecap="round" stroke-linejoin="round"/>
<path d="M129.747 134.166C130.199 129.638 135.606 122.828 136.059 118.3C136.098 118.05 136.129 112.945 135.627 110.438C125.927 115.293 125.813 126.645 129.747 134.166Z" stroke="#E6E3BD" stroke-width="1.5" stroke-miterlimit="10" stroke-linecap="round" stroke-linejoin="round"/>
<path d="M129.747 134.167C134.329 119.56 146.119 126.662 147.522 125.862C147.331 129.537 142.06 131.386 138.231 132.186C134.69 132.776 133.903 132.908 129.747 134.167Z" stroke="#E6E3BD" stroke-width="1.5" stroke-miterlimit="10" stroke-linecap="round" stroke-linejoin="round"/>
<path d="M139.759 119.141C143.137 114.692 147.987 112.265 149.105 105.926C149.456 103.682 149.02 101.569 149.094 98.6422C145.331 99.8359 142.608 103.366 141.132 107.093C139.904 110.86 139.635 115.033 139.759 119.141Z" stroke="#E6E3BD" stroke-width="1.5" stroke-miterlimit="10" stroke-linecap="round" stroke-linejoin="round"/>
<path d="M140.741 117.762C148.551 112.737 156.976 115.219 160.755 115.561C156.302 120.35 150.182 124.365 140.074 119.573" stroke="#E6E3BD" stroke-width="1.5" stroke-miterlimit="10" stroke-linecap="round" stroke-linejoin="round"/>
<path d="M106.041 167.341C108.644 162.131 104.933 154.006 103.733 150.239C98.7937 154.058 95.0763 168.035 104.892 170.609" stroke="#E6E3BD" stroke-width="1.5" stroke-miterlimit="10" stroke-linecap="round" stroke-linejoin="round"/>
<path d="M119.808 162.619C117.872 166.018 115.686 169.377 112.515 171.687C109.921 173.576 105.788 173.051 105.691 169.586C105.609 167.656 106.774 165.924 108.426 165.163C112.123 163.576 117.054 163.078 119.808 162.619Z" stroke="#E6E3BD" stroke-width="1.5" stroke-miterlimit="10" stroke-linecap="round" stroke-linejoin="round"/>
<path d="M78.4982 161.325C81.1007 156.115 77.3893 147.99 76.1899 144.223C71.2504 148.042 67.5331 162.018 77.3488 164.593" stroke="#E6E3BD" stroke-width="1.5" stroke-miterlimit="10" stroke-linecap="round" stroke-linejoin="round"/>
<path d="M92.3697 156.747C90.4334 160.146 88.2479 163.505 85.077 165.815C82.4826 167.704 78.3498 167.178 78.2528 163.714C78.1711 161.784 79.336 160.052 80.9876 159.291C84.6843 157.704 89.6157 157.206 92.3697 156.747Z" stroke="#E6E3BD" stroke-width="1.5" stroke-miterlimit="10" stroke-linecap="round" stroke-linejoin="round"/>
<path d="M93.6453 184.546C93.4821 180.687 102.262 175.176 95.1352 163.573C89.0934 167.089 88.8235 179.439 93.6453 184.546Z" stroke="#E6E3BD" stroke-width="1.5" stroke-miterlimit="10" stroke-linecap="round" stroke-linejoin="round"/>
<path d="M93.6447 184.545C96.1701 171.657 110.516 177.119 112.993 175.978C111.922 178.747 106.117 183.195 103.352 184.546C100.048 186.068 96.1141 186.724 93.6447 184.545Z" stroke="#E6E3BD" stroke-width="1.5" stroke-miterlimit="10" stroke-linecap="round" stroke-linejoin="round"/>
<path d="M83.6917 151.797C87.0611 150.669 88.5694 141.837 101.283 143.847C100.492 149.726 89.8732 153.925 83.6917 151.797Z" stroke="#E6E3BD" stroke-width="1.5" stroke-miterlimit="10" stroke-linecap="round" stroke-linejoin="round"/>
<path d="M83.6916 151.797C93.8743 145.486 83.7983 135.589 83.7947 133.161C81.843 135.024 80.1207 141.14 80.0854 143.817C79.867 146.849 80.856 150.327 83.6916 151.797Z" stroke="#E6E3BD" stroke-width="1.5" stroke-miterlimit="10" stroke-linecap="round" stroke-linejoin="round"/>
<path d="M86.1889 197.932C92.4454 188.956 86.7397 180.516 85.2793 177.602C74.8899 186.052 82.9408 192.563 84.7086 199.231" stroke="#E6E3BD" stroke-width="1.5" stroke-miterlimit="10" stroke-linecap="round" stroke-linejoin="round"/>
<path d="M84.9577 199.27C87.5131 197.63 91.8886 185.162 104.645 189.351C101.178 195.191 96.0353 203.577 84.9577 199.27Z" stroke="#E6E3BD" stroke-width="1.5" stroke-miterlimit="10" stroke-linecap="round" stroke-linejoin="round"/>
<path d="M85.9663 198.535C76.5116 209.177 69.1718 221.815 64.4963 235.385" stroke="#E6E3BD" stroke-width="1.5" stroke-miterlimit="10" stroke-linecap="round" stroke-linejoin="round"/>
<path d="M140.762 62.0621C144.941 59.0179 146.473 56.577 154.879 55.0953C152.233 58.1266 151.633 60.3314 149.604 62.6935C148.373 64.032 144.991 66.0526 143.391 65.6718" stroke="#E6E3BD" stroke-width="1.5" stroke-miterlimit="10" stroke-linecap="round" stroke-linejoin="round"/>
<path d="M140.762 62.0622C141.308 58.5712 141.709 55.1851 141.756 51.6153C134.705 55.8664 131.756 65.7487 135.335 73.0859" stroke="#E6E3BD" stroke-width="1.5" stroke-miterlimit="10" stroke-linecap="round" stroke-linejoin="round"/>
<path d="M143.535 65.5671C146.304 66.6438 147.512 67.0903 151.185 67.2877C149.249 70.6867 145.79 73.206 142.393 73.691C139.639 74.1499 138.303 75.3441 135.335 73.0861" stroke="#E6E3BD" stroke-width="1.5" stroke-miterlimit="10" stroke-linecap="round" stroke-linejoin="round"/>
<path d="M130.356 77.1531C130.773 75.3026 132.075 60.4328 130.225 60.0125C129.477 59.8942 121.931 66.4946 123.559 75.6952C124.22 79.6326 124.563 80.7089 126.14 82.8747" stroke="#E6E3BD" stroke-width="1.5" stroke-miterlimit="10" stroke-linecap="round" stroke-linejoin="round"/>
<path d="M130.211 77.2576C133.109 76.6938 138.555 77.8103 141.94 78.2177C142.438 78.2965 143.291 78.5591 143.213 79.0579C143.279 79.4516 142.847 79.7665 142.559 79.9765C137.502 84.543 132.271 86.1433 126.035 82.7299" stroke="#E6E3BD" stroke-width="1.5" stroke-miterlimit="10" stroke-linecap="round" stroke-linejoin="round"/>
<path d="M122.113 90.6705C124.31 86.4185 119.754 74.7107 117.311 73.1747C115.578 72.0064 115.083 82.5321 115.308 84.3565C115.694 87.6114 119.642 96.668 118.813 94.6204" stroke="#E6E3BD" stroke-width="1.5" stroke-miterlimit="10" stroke-linecap="round" stroke-linejoin="round"/>
<path d="M118.956 94.5149C122.054 86.9557 135.773 85.803 139.465 89.9641C134.541 95.3181 126.015 95.1198 118.956 94.5149Z" stroke="#E6E3BD" stroke-width="1.5" stroke-miterlimit="10" stroke-linecap="round" stroke-linejoin="round"/>
<path d="M117.087 98.308C116.164 95.2236 112.191 87.952 109.161 87.7284C107.715 94.5266 108.798 99.0416 114.364 101.838" stroke="#E6E3BD" stroke-width="1.5" stroke-miterlimit="10" stroke-linecap="round" stroke-linejoin="round"/>
<path d="M117.087 98.3081C119.88 97.5999 122.844 97.4298 125.731 97.7583C126.479 97.8766 129.01 98.0214 129.536 98.7433C130.128 99.859 126.237 102.693 125.228 103.428C120.837 106.183 117.437 104.24 114.364 101.838" stroke="#E6E3BD" stroke-width="1.5" stroke-miterlimit="10" stroke-linecap="round" stroke-linejoin="round"/>
<path d="M108.727 112.573C108.75 110.788 111.567 108.295 108.961 102.9C107.224 99.304 105.125 98.8443 103.232 96.2453C102.075 94.6571 101.915 101.403 102.222 105.157C102.386 109.015 105.72 110.565 108.727 112.573Z" stroke="#E6E3BD" stroke-width="1.5" stroke-miterlimit="10" stroke-linecap="round" stroke-linejoin="round"/>
<path d="M108.727 112.573C114.204 108.584 114.333 106.944 122.664 108.389C121.188 112.116 114.11 115.724 108.727 112.573Z" stroke="#E6E3BD" stroke-width="1.5" stroke-miterlimit="10" stroke-linecap="round" stroke-linejoin="round"/>
<path d="M94.1638 137.101C95.2742 134.082 96.7391 131.247 95.4228 128.229C94.7646 126.719 93.0277 123.123 91.7658 121.39C90.3988 119.513 87.1418 125.642 88.0801 130.262C88.847 134.343 89.992 136.824 94.1638 137.101Z" stroke="#E6E3BD" stroke-width="1.5" stroke-miterlimit="10" stroke-linecap="round" stroke-linejoin="round"/>
<path d="M94.1643 137.101C95.0681 136.222 96.1667 134.096 99.3531 133.322C104.296 131.932 107.895 135.056 106.021 136.421C104.829 137.51 97.6382 144.294 94.1643 137.101Z" stroke="#E6E3BD" stroke-width="1.5" stroke-miterlimit="10" stroke-linecap="round" stroke-linejoin="round"/>
<path d="M161.122 20.0536C160.794 28.6895 157.186 37.0624 151.004 43.1118" stroke="#E6E3BD" stroke-width="1.5" stroke-miterlimit="10" stroke-linecap="round" stroke-linejoin="round"/>
<path d="M170.181 25.8296C171.283 34.3082 168.633 43.0881 163.16 49.5051" stroke="#E6E3BD" stroke-width="1.5" stroke-miterlimit="10" stroke-linecap="round" stroke-linejoin="round"/>
<path d="M131.167 31.9264C126.698 43.3571 122.124 54.6434 117.655 66.0741" stroke="#E6E3BD" stroke-width="1.5" stroke-miterlimit="10" stroke-linecap="round" stroke-linejoin="round"/>
<path d="M107.075 61.846C102.879 71.5312 101.348 82.1487 102.281 92.5172" stroke="#E6E3BD" stroke-width="1.5" stroke-miterlimit="10" stroke-linecap="round" stroke-linejoin="round"/>
<path d="M164.389 64.5193C158.889 70.2932 153.244 76.172 147.743 81.9459" stroke="#E6E3BD" stroke-width="1.5" stroke-miterlimit="10" stroke-linecap="round" stroke-linejoin="round"/>
<path d="M163.492 78.4312C159.117 82.7221 155.163 87.5907 151.918 92.8268" stroke="#E6E3BD" stroke-width="1.5" stroke-miterlimit="10" stroke-linecap="round" stroke-linejoin="round"/>
<path d="M180.317 101.533C176.087 105.719 171.186 109.288 166.009 112.175" stroke="#E6E3BD" stroke-width="1.5" stroke-miterlimit="10" stroke-linecap="round" stroke-linejoin="round"/>
<path d="M170.34 78.7477C167.285 88.4856 161.816 97.3307 154.441 104.469" stroke="#E6E3BD" stroke-width="1.5" stroke-miterlimit="10" stroke-linecap="round" stroke-linejoin="round"/>
<path d="M173.897 114.828C167.439 120.195 159.994 124.512 151.931 127.07" stroke="#E6E3BD" stroke-width="1.5" stroke-miterlimit="10" stroke-linecap="round" stroke-linejoin="round"/>
<path d="M157.73 136.546C151.127 142.018 143.893 146.623 136.067 150.113" stroke="#E6E3BD" stroke-width="1.5" stroke-miterlimit="10" stroke-linecap="round" stroke-linejoin="round"/>
<path d="M135.049 162.345C129.494 166.832 123.518 170.742 117.122 174.075" stroke="#E6E3BD" stroke-width="1.5" stroke-miterlimit="10" stroke-linecap="round" stroke-linejoin="round"/>
<path d="M89.1868 89.6813C87.3512 98.9731 85.6599 108.16 83.7192 117.307" stroke="#E6E3BD" stroke-width="1.5" stroke-miterlimit="10" stroke-linecap="round" stroke-linejoin="round"/>
<path d="M71.6667 119.234C69.0208 130.442 66.2308 141.755 63.4797 152.818" stroke="#E6E3BD" stroke-width="1.5" stroke-miterlimit="10" stroke-linecap="round" stroke-linejoin="round"/>
<path d="M46.4119 186.021C46.0721 195.549 44.1976 205.091 41.1156 214.185" stroke="#E6E3BD" stroke-width="1.5" stroke-miterlimit="10" stroke-linecap="round" stroke-linejoin="round"/>
<path d="M69.5112 177.153C62.7009 192.94 56.5995 209.096 51.2459 225.369" stroke="#E6E3BD" stroke-width="1.5" stroke-miterlimit="10" stroke-linecap="round" stroke-linejoin="round"/>
</g>
</g>
<defs>
<clipPath id="clip0_368_21301">
<rect width="220" height="250" fill="white"/>
</clipPath>
<clipPath id="clip1_368_21301">
<rect width="127" height="217" fill="white" transform="translate(159.756 10) rotate(53.9341)"/>
</clipPath>
</defs>
</svg>
