<svg width="220" height="250" viewBox="0 0 220 250" fill="none" xmlns="http://www.w3.org/2000/svg">
<g clip-path="url(#clip0_368_21206)">
<path d="M35.5835 170.188C32.8178 154.343 34.5778 138.498 40.8635 124.413C41.6178 122.946 42.6235 121.185 44.3835 121.479C43.3778 126.761 43.8807 132.629 45.8921 137.911C47.9035 142.899 51.1721 148.181 50.6692 153.462C49.915 160.798 39.6064 164.319 35.5835 170.188Z" stroke="#E6E3BD" stroke-width="1.5" stroke-miterlimit="10" stroke-linecap="round" stroke-linejoin="round"/>
<path d="M51.4248 149.648C57.9619 145.833 65.7562 143.486 73.8019 143.193C70.5333 147.594 67.0134 151.702 63.7448 156.103C60.4762 160.505 56.7048 164.906 51.4248 166.373C47.1505 167.84 40.3619 167.254 36.0876 169.014" stroke="#E6E3BD" stroke-width="1.5" stroke-miterlimit="10" stroke-linecap="round" stroke-linejoin="round"/>
<path d="M54.1889 139.671C54.1889 132.336 49.4117 126.174 48.9089 118.838C48.1546 111.502 49.1603 103.58 54.1889 98.2982C53.686 101.232 55.446 104.167 56.9546 107.101C62.2346 118.251 61.2289 130.869 54.1889 139.671Z" stroke="#E6E3BD" stroke-width="1.5" stroke-miterlimit="10" stroke-linecap="round" stroke-linejoin="round"/>
<path d="M60.9771 137.911C62.7371 130.869 68.017 125.293 74.3028 121.772C80.5885 118.251 88.1313 116.197 95.9256 115.023C93.4113 116.197 92.1542 118.838 90.6456 121.185C84.1085 131.162 74.3028 136.15 60.9771 137.911Z" stroke="#E6E3BD" stroke-width="1.5" stroke-miterlimit="10" stroke-linecap="round" stroke-linejoin="round"/>
<path d="M63.9943 116.197C65.7543 108.275 62.9886 99.472 61.9829 91.2561C60.9772 82.7467 61.9829 73.357 69.2743 69.249C67.2629 74.5307 70.28 80.3993 71.7886 85.9744C74.5543 97.1246 70.7829 108.862 63.9943 116.197Z" stroke="#E6E3BD" stroke-width="1.5" stroke-miterlimit="10" stroke-linecap="round" stroke-linejoin="round"/>
<path d="M71.7896 111.796C73.2981 107.101 80.0867 101.233 84.8638 99.1785C89.641 97.1246 95.1724 95.9508 100.704 95.364C103.721 95.0706 107.241 94.7771 109.001 92.7231C105.481 95.6574 101.961 98.8851 98.1895 101.819C95.4238 104.167 92.6581 106.514 89.3895 107.981C84.1096 110.622 78.0753 111.209 71.7896 111.796Z" stroke="#E6E3BD" stroke-width="1.5" stroke-miterlimit="10" stroke-linecap="round" stroke-linejoin="round"/>
<path d="M78.83 93.0164C77.07 86.561 76.0643 75.4107 77.5729 68.6619C78.83 62.7934 81.8472 57.5117 86.1214 53.4037C85.1157 61.3262 87.8814 69.5422 86.1214 77.4647C85.3672 80.399 84.11 83.3333 82.8529 85.9741C81.8472 88.615 80.8414 90.9624 78.83 93.0164Z" stroke="#E6E3BD" stroke-width="1.5" stroke-miterlimit="10" stroke-linecap="round" stroke-linejoin="round"/>
<path d="M86.6243 91.5495C87.8814 87.1481 87.63 83.6269 91.15 80.3992C92.91 78.6387 94.9214 77.465 97.1843 76.2912C103.721 73.6504 112.019 75.1175 117.299 70.7161C109.001 79.8124 98.4414 86.8546 86.6243 91.5495Z" stroke="#E6E3BD" stroke-width="1.5" stroke-miterlimit="10" stroke-linecap="round" stroke-linejoin="round"/>
<path d="M93.161 66.9014C90.1438 59.8591 90.6467 48.4155 93.9152 41.9601C96.1781 37.5586 100.201 33.7441 100.452 28.4624C103.972 41.9601 101.207 56.338 93.161 66.9014Z" stroke="#E6E3BD" stroke-width="1.5" stroke-miterlimit="10" stroke-linecap="round" stroke-linejoin="round"/>
<path d="M96.6814 68.075C99.95 61.0328 107.493 54.5774 115.79 53.1102C121.07 52.23 127.356 52.5234 131.63 49.5891C126.35 53.6971 122.076 58.9788 116.544 63.0868C111.264 66.9013 103.973 69.5422 96.6814 68.075Z" stroke="#E6E3BD" stroke-width="1.5" stroke-miterlimit="10" stroke-linecap="round" stroke-linejoin="round"/>
<path d="M108.749 39.9063C111.011 35.2115 111.011 27.2889 112.269 22.3007C113.526 17.3124 116.543 12.6176 120.566 9.09644C119.56 11.4439 120.817 14.0847 121.32 16.4321C124.086 26.1152 118.303 36.6786 108.749 39.9063Z" stroke="#E6E3BD" stroke-width="1.5" stroke-miterlimit="10" stroke-linecap="round" stroke-linejoin="round"/>
<path d="M113.275 45.1878C113.024 40.4929 117.549 34.331 121.572 32.277C128.864 28.169 137.915 26.7018 146.715 25.5281C139.424 29.0493 135.401 36.6784 128.109 40.1995C123.332 42.2535 117.801 42.8403 113.275 45.1878Z" stroke="#E6E3BD" stroke-width="1.5" stroke-miterlimit="10" stroke-linecap="round" stroke-linejoin="round"/>
<path d="M127.104 21.7136C127.607 17.3122 126.098 10.8568 132.384 8.50935C136.407 7.04222 141.184 6.45536 145.961 8.21592C141.687 10.5633 137.915 14.0845 135.149 17.899C134.144 19.3662 133.389 20.5399 132.132 21.4202C130.875 22.5939 128.612 22.8873 127.104 21.7136Z" stroke="#E6E3BD" stroke-width="1.5" stroke-miterlimit="10" stroke-linecap="round" stroke-linejoin="round"/>
<path d="M149.983 6.16151C153.755 4.69437 157.777 2.93381 161.549 1.46667" stroke="#E6E3BD" stroke-width="1.5" stroke-miterlimit="10" stroke-linecap="round" stroke-linejoin="round"/>
<path d="M152.247 23.7668C154.509 22.8868 156.772 22.0068 159.035 20.8335" stroke="#E6E3BD" stroke-width="1.5" stroke-miterlimit="10" stroke-linecap="round" stroke-linejoin="round"/>
<path d="M82.8534 185.446C81.0934 172.535 83.1048 158.744 88.6362 147.3C87.6305 152.289 89.3905 156.984 90.1448 161.972C91.4019 171.655 87.1277 182.512 80.0876 187.207" stroke="#E6E3BD" stroke-width="1.5" stroke-miterlimit="10" stroke-linecap="round" stroke-linejoin="round"/>
<path d="M87.1275 178.697C89.1389 174.589 93.6647 171.068 97.4361 170.188C101.208 169.307 105.23 169.894 109.002 170.481C112.773 171.068 116.796 171.655 119.562 175.176C116.293 174.882 113.276 177.23 110.762 180.164C108.499 183.098 106.488 186.326 103.722 188.967C99.699 192.488 94.419 193.368 89.8932 191.901C85.3675 190.434 85.3675 190.434 82.6018 185.739" stroke="#E6E3BD" stroke-width="1.5" stroke-miterlimit="10" stroke-linecap="round" stroke-linejoin="round"/>
<path d="M92.4055 155.81C93.6627 141.138 98.1884 129.108 107.491 118.544C107.994 126.174 108.246 134.096 105.983 141.432C103.72 148.767 98.6912 155.516 92.4055 155.81Z" stroke="#E6E3BD" stroke-width="1.5" stroke-miterlimit="10" stroke-linecap="round" stroke-linejoin="round"/>
<path d="M97.1833 162.265C102.212 157.864 104.223 154.049 110.006 151.995C115.789 149.941 122.578 150.235 127.355 154.636C123.332 157.277 119.309 159.918 115.286 162.559C113.275 164.026 111.012 165.199 108.749 165.786C104.978 166.667 100.955 164.319 97.1833 162.265Z" stroke="#E6E3BD" stroke-width="1.5" stroke-miterlimit="10" stroke-linecap="round" stroke-linejoin="round"/>
<path d="M112.52 134.977C113.777 119.718 122.325 105.634 133.891 99.7653C129.366 105.34 131.126 115.024 127.606 121.479C126.097 124.12 124.085 125.88 122.074 127.641C118.554 130.575 116.291 132.042 112.52 134.977Z" stroke="#E6E3BD" stroke-width="1.5" stroke-miterlimit="10" stroke-linecap="round" stroke-linejoin="round"/>
<path d="M117.548 139.672C120.565 135.857 124.588 133.803 128.36 132.042C134.897 128.815 142.44 126.174 148.725 129.695C143.948 132.923 139.423 136.444 134.645 139.672C133.64 140.258 132.885 141.139 131.628 141.139C130.623 141.432 129.617 141.139 128.863 141.139C126.097 140.845 123.583 140.552 120.817 140.258C119.811 140.258 118.051 139.672 117.548 139.672Z" stroke="#E6E3BD" stroke-width="1.5" stroke-miterlimit="10" stroke-linecap="round" stroke-linejoin="round"/>
<path d="M135.904 114.73C137.412 100.352 145.961 87.1479 157.275 82.1597C155.264 84.8005 154.761 88.6151 153.755 92.1362C150.99 103.58 144.955 109.742 135.904 114.73Z" stroke="#E6E3BD" stroke-width="1.5" stroke-miterlimit="10" stroke-linecap="round" stroke-linejoin="round"/>
<path d="M140.932 119.425C143.95 113.556 148.475 112.089 154.007 110.916C159.538 110.035 165.321 110.329 170.852 109.448C163.31 119.425 151.241 123.24 140.932 119.425Z" stroke="#E6E3BD" stroke-width="1.5" stroke-miterlimit="10" stroke-linecap="round" stroke-linejoin="round"/>
<path d="M160.291 95.6574C160.291 91.5494 162.051 87.4414 164.314 84.2137C167.331 79.8123 170.851 76.2912 174.874 73.3569C177.891 71.3029 181.411 69.5424 184.68 68.3687C180.908 70.7161 178.897 75.7043 177.137 80.6926C176.383 82.7466 175.628 84.8006 174.623 86.5611C173.114 88.9086 171.103 90.3757 169.091 91.5494C166.074 93.0165 163.56 95.0705 160.291 95.6574Z" stroke="#E6E3BD" stroke-width="1.5" stroke-miterlimit="10" stroke-linecap="round" stroke-linejoin="round"/>
<path d="M164.316 101.819C170.602 96.5376 176.385 92.7231 183.928 93.0165C186.945 93.3099 190.465 93.8968 193.23 92.4296C188.202 97.4179 182.419 102.993 176.133 103.286C172.11 103.58 168.088 101.819 164.316 101.819Z" stroke="#E6E3BD" stroke-width="1.5" stroke-miterlimit="10" stroke-linecap="round" stroke-linejoin="round"/>
<path d="M181.412 85.9741C184.932 76.8778 193.229 71.0093 201.275 71.8895C198.258 76.5844 196.749 83.3332 192.223 85.3872C190.715 86.2675 188.955 86.2675 187.195 86.2675C184.429 86.2675 183.926 85.9741 181.412 85.9741Z" stroke="#E6E3BD" stroke-width="1.5" stroke-miterlimit="10" stroke-linecap="round" stroke-linejoin="round"/>
<path d="M200.52 71.8898C207.057 68.6621 212.337 65.7278 218.874 62.5001" stroke="#E6E3BD" stroke-width="1.5" stroke-miterlimit="10" stroke-linecap="round" stroke-linejoin="round"/>
<path d="M191.72 93.3087C193.983 92.1353 195.994 90.962 198.257 89.4954" stroke="#E6E3BD" stroke-width="1.5" stroke-miterlimit="10" stroke-linecap="round" stroke-linejoin="round"/>
<path d="M183.173 68.9541C184.933 67.7808 186.945 66.3141 188.705 65.1408" stroke="#E6E3BD" stroke-width="1.5" stroke-miterlimit="10" stroke-linecap="round" stroke-linejoin="round"/>
<path d="M157.275 82.1595C160.544 79.2253 161.549 78.345 165.069 75.9976" stroke="#E6E3BD" stroke-width="1.5" stroke-miterlimit="10" stroke-linecap="round" stroke-linejoin="round"/>
<path d="M133.891 99.7653C135.651 97.1244 136.154 95.9507 138.668 93.8967" stroke="#E6E3BD" stroke-width="1.5" stroke-miterlimit="10" stroke-linecap="round" stroke-linejoin="round"/>
<path d="M148.726 129.694C152.497 128.521 154.76 128.814 158.532 127.934" stroke="#E6E3BD" stroke-width="1.5" stroke-miterlimit="10" stroke-linecap="round" stroke-linejoin="round"/>
<path d="M107.491 118.545C109.754 116.197 111.011 114.73 113.274 112.676" stroke="#E6E3BD" stroke-width="1.5" stroke-miterlimit="10" stroke-linecap="round" stroke-linejoin="round"/>
<path d="M127.606 154.636C131.629 153.169 132.383 152.582 137.411 149.941" stroke="#E6E3BD" stroke-width="1.5" stroke-miterlimit="10" stroke-linecap="round" stroke-linejoin="round"/>
<path d="M88.6343 147.007C89.3888 144.366 90.1433 142.606 91.9039 140.258" stroke="#E6E3BD" stroke-width="1.5" stroke-miterlimit="10" stroke-linecap="round" stroke-linejoin="round"/>
<path d="M86.3733 53.6973C87.6309 50.7631 88.8884 47.5354 89.643 44.3077" stroke="#E6E3BD" stroke-width="1.5" stroke-miterlimit="10" stroke-linecap="round" stroke-linejoin="round"/>
<path d="M68.7734 69.5424C70.7849 66.0213 73.0477 62.5002 75.0591 58.9791" stroke="#E6E3BD" stroke-width="1.5" stroke-miterlimit="10" stroke-linecap="round" stroke-linejoin="round"/>
<path d="M53.9385 98.5916C54.4415 96.8311 55.196 95.0705 55.6991 93.3099" stroke="#E6E3BD" stroke-width="1.5" stroke-miterlimit="10" stroke-linecap="round" stroke-linejoin="round"/>
<path d="M80.086 187.207C66.5089 202.758 55.9489 221.538 46.8975 241.491" stroke="#E6E3BD" stroke-width="1.5" stroke-miterlimit="10" stroke-linecap="round" stroke-linejoin="round"/>
<path d="M36.8413 169.014C18.9899 192.195 6.66989 221.831 1.38989 248.533" stroke="#E6E3BD" stroke-width="1.5" stroke-miterlimit="10" stroke-linecap="round" stroke-linejoin="round"/>
</g>
<defs>
<clipPath id="clip0_368_21206">
<rect width="220" height="250" fill="white" transform="translate(0.132324)"/>
</clipPath>
</defs>
</svg>
