<svg width="212" height="247" viewBox="0 0 212 247" fill="none" xmlns="http://www.w3.org/2000/svg">
<g clip-path="url(#clip0_326_33161)">
<path d="M87.9607 57.0669C86.4361 55.7421 84.4342 52.8174 82.2895 51.5087C81.3428 50.913 80.2448 51.6236 80.0853 52.6199C79.8242 56.7815 79.588 61.8726 80.3745 65.7589C80.7929 67.4844 81.5718 68.7665 79.7702 68.6891C79.1501 68.7052 76.5372 63.8119 73.4872 63.4568C71.189 70.3376 76.2196 83.6733 73.4872 85.9145C72.5736 86.5583 71.6874 84.3393 67.507 81.1609C64.53 88.1833 65.8088 98.8783 67.1891 106.408" stroke="#E6E3BD" stroke-width="1.5" stroke-miterlimit="10" stroke-linecap="round" stroke-linejoin="round"/>
<path d="M67.1892 106.408C67.223 105.353 64.3912 103.876 62.4308 102.5C61.3584 101.846 60.1348 102.498 60.0422 103.678C60.0242 107.647 62.218 113.11 62.9879 116.376C63.8331 120.137 64.9883 123.89 66.3866 127.451C65.2555 126.922 64.4766 125.64 63.706 124.667C62.8097 123.636 61.1172 122.998 60.3376 124.01C59.9184 124.579 59.8763 125.325 59.7672 125.886C59.6318 130.106 59.4964 134.326 59.361 138.547C59.3693 138.856 54.191 137.812 54.5011 137.804" stroke="#E6E3BD" stroke-width="1.5" stroke-miterlimit="10" stroke-linecap="round" stroke-linejoin="round"/>
<path d="M87.9609 57.0669C90.4675 53.3433 97.5255 45.7811 101.573 44.002C99.3761 50.012 96.743 55.9713 93.666 61.57C96.7423 58.2658 102.642 58.4231 105.649 61.8179C100.352 65.6138 95.0545 69.4096 89.6988 73.331C93.4283 71.25 98.1377 71.0041 102.034 72.8256C96.2083 77.7513 91.0125 81.5896 85.1871 86.5153C87.8436 86.0744 90.2732 85.5324 93.0297 86.5153C89.6343 91.8122 85.1666 96.4547 80.1795 100.243C83.2552 99.2327 85.1576 98.4393 89.2807 97.1543C86.7147 103.298 82.6488 109.046 77.5526 113.395C78.5249 112.626 84.2149 111.92 85.1871 111.151C83.9365 117.757 76.804 122.53 71.4482 126.451C74.5238 125.442 76.0071 125.217 79.0993 124.827C76.6589 131.03 66.1731 140.355 66.1227 140.79C65.9549 141.477 68.1756 140.985 69.2902 140.894C77.176 138.768 62.6582 152.786 57.8134 157.252C56.9938 152.127 55.0189 143.248 54.258 137.997" stroke="#E6E3BD" stroke-width="1.5" stroke-miterlimit="10" stroke-linecap="round" stroke-linejoin="round"/>
<path d="M79.477 148.258C85.6228 136.75 86.236 131.836 89.7841 120.644L94.3823 127.842L99.3667 105.389C101.352 107.694 102.667 110.45 103.118 113.415C106.917 104.635 111.344 96.1488 116.466 88.1407L121.047 97.0139C120.354 89.6524 122.627 81.8421 126.987 75.466C128.855 78.0222 133.395 83.0516 131.416 85.6453C134.921 79.7875 138.745 71.937 145.206 69.9094C144.443 71.5414 145.757 76.5924 145.119 78.2832C149.538 71.7816 157.793 67.2271 163.164 66.2198C163.843 66.0783 164.539 66.5563 164.245 67.1841C162.484 70.9504 160.028 74.2386 156.876 77.0487C160.672 77.4465 164.141 79.5271 166.21 82.6362C161.391 83.443 156.715 84.9284 152.306 87.1509L162.336 90.922C154.265 93.1153 148.189 95.6291 139.877 95.7202L146.83 102.796C140.301 106.933 132.014 105.66 124.429 107.468L132.548 111.723C125.424 116.806 117.01 120.063 108.353 121.217L121.14 123.677C113.102 129.404 104.67 134.335 95.7867 138.596L104.275 140.422C92.0625 150.164 79.7834 159.722 67.5713 169.464C68.7038 165.404 76.2908 154.417 79.477 148.258Z" stroke="#E6E3BD" stroke-width="1.5" stroke-miterlimit="10" stroke-linecap="round" stroke-linejoin="round"/>
<path d="M57.9973 157.185C56.9869 172.777 46.1075 181.306 39.5923 195.241" stroke="#E6E3BD" stroke-width="1.5" stroke-miterlimit="10" stroke-linecap="round" stroke-linejoin="round"/>
<path d="M68.7029 167.698C60.9737 178.006 51.3201 179 46.0234 208.345" stroke="#E6E3BD" stroke-width="1.5" stroke-miterlimit="10" stroke-linecap="round" stroke-linejoin="round"/>
<path d="M150.846 62.7556C158.182 51.6516 171.65 44.7917 184.948 45.5016" stroke="#E6E3BD" stroke-width="1.5" stroke-miterlimit="10" stroke-linecap="round" stroke-linejoin="round"/>
<path d="M132.744 70.3555C138.436 62.7667 145.142 55.9578 152.493 50.0624" stroke="#E6E3BD" stroke-width="1.5" stroke-miterlimit="10" stroke-linecap="round" stroke-linejoin="round"/>
<path d="M172.509 62.9396C178.342 60.6182 184.301 58.3556 190.134 56.0341" stroke="#E6E3BD" stroke-width="1.5" stroke-miterlimit="10" stroke-linecap="round" stroke-linejoin="round"/>
<path d="M154.975 103.391C164.52 102.958 174.157 101.345 183.333 98.7506" stroke="#E6E3BD" stroke-width="1.5" stroke-miterlimit="10" stroke-linecap="round" stroke-linejoin="round"/>
<path d="M107.628 54.6353C114.074 47.399 120.587 40.3471 127.033 33.1109" stroke="#E6E3BD" stroke-width="1.5" stroke-miterlimit="10" stroke-linecap="round" stroke-linejoin="round"/>
<path d="M102.085 37.6629C107.601 30.4507 113.754 23.8422 120.602 17.7118" stroke="#E6E3BD" stroke-width="1.5" stroke-miterlimit="10" stroke-linecap="round" stroke-linejoin="round"/>
<path d="M84.5285 44.7531C86.8944 35.7621 90.8857 27.2252 96.2678 19.6444" stroke="#E6E3BD" stroke-width="1.5" stroke-miterlimit="10" stroke-linecap="round" stroke-linejoin="round"/>
<path d="M67.5757 74.4616C67.5951 65.9035 66.8688 57.3027 65.1536 48.8514" stroke="#E6E3BD" stroke-width="1.5" stroke-miterlimit="10" stroke-linecap="round" stroke-linejoin="round"/>
<path d="M57.2367 96.2475C58.5295 88.8966 58.0124 81.1586 55.7102 73.9628" stroke="#E6E3BD" stroke-width="1.5" stroke-miterlimit="10" stroke-linecap="round" stroke-linejoin="round"/>
<path d="M69.538 175.738C79.5798 166.052 91.6655 158.546 104.748 153.494" stroke="#E6E3BD" stroke-width="1.5" stroke-miterlimit="10" stroke-linecap="round" stroke-linejoin="round"/>
<path d="M124.054 130.547C129.652 128.727 135.25 126.908 140.848 125.089" stroke="#E6E3BD" stroke-width="1.5" stroke-miterlimit="10" stroke-linecap="round" stroke-linejoin="round"/>
<path d="M138.168 117.716C148.183 113.984 158.524 110.864 169.016 108.732" stroke="#E6E3BD" stroke-width="1.5" stroke-miterlimit="10" stroke-linecap="round" stroke-linejoin="round"/>
<path d="M174.731 83.4075C184.56 82.0368 194.156 78.8738 202.965 74.1189" stroke="#E6E3BD" stroke-width="1.5" stroke-miterlimit="10" stroke-linecap="round" stroke-linejoin="round"/>
<path d="M111.654 70.5921C116.431 68.236 121.334 65.9386 126.111 63.5825" stroke="#E6E3BD" stroke-width="1.5" stroke-miterlimit="10" stroke-linecap="round" stroke-linejoin="round"/>
<path d="M84.6062 60.3928C85.6203 61.7188 85.4978 62.7489 85.5909 64.4723" stroke="#E6E3BD" stroke-width="1.5" stroke-linecap="round"/>
<path d="M91.6401 66.0197L93.4689 65.1757" stroke="#E6E3BD" stroke-width="1.5" stroke-linecap="round"/>
<path d="M77.4319 73.0535C77.9037 75.0566 78.4429 77.0433 78.5573 79.1025" stroke="#E6E3BD" stroke-width="1.5" stroke-linecap="round"/>
<path d="M82.4962 80.6499C83.8554 80.0387 85.2155 79.4297 86.5758 78.8212" stroke="#E6E3BD" stroke-width="1.5" stroke-linecap="round"/>
<path d="M70.8201 90.2158C71.3894 92.4398 71.5234 94.5397 71.5234 96.8275" stroke="#E6E3BD" stroke-width="1.5" stroke-linecap="round"/>
<path d="M76.7285 94.7174C78.052 93.465 79.3229 92.076 80.8472 91.0599C81.693 90.496 82.5955 90.0105 83.4809 89.5124" stroke="#E6E3BD" stroke-width="1.5" stroke-linecap="round"/>
<path d="M66.1777 111.458C67.3524 114.003 68.938 116.21 69.2726 119.054" stroke="#E6E3BD" stroke-width="1.5" stroke-linecap="round"/>
<path d="M74.1964 110.051C75.9944 107.784 77.9022 106.238 80.2455 104.565" stroke="#E6E3BD" stroke-width="1.5" stroke-linecap="round"/>
<path d="M63.5051 130.168C63.9612 131.593 63.9272 132.9 63.9272 134.388" stroke="#E6E3BD" stroke-width="1.5" stroke-linecap="round"/>
<path d="M66.4593 133.544C67.693 132.268 68.95 131.075 70.2575 129.886" stroke="#E6E3BD" stroke-width="1.5" stroke-linecap="round"/>
<path d="M60.1289 149.018C60.312 147.832 60.6916 146.569 60.6917 145.36" stroke="#E6E3BD" stroke-width="1.5" stroke-linecap="round"/>
<path d="M153.959 75.5857C152.315 77.5186 150.894 79.8239 149.629 82.0254C149.017 83.0918 151.931 81.8829 152.271 81.7754" stroke="#E6E3BD" stroke-width="1.5" stroke-linecap="round"/>
<path d="M141.58 79.6652C140.175 82.4201 138.483 84.9529 136.797 87.543" stroke="#E6E3BD" stroke-width="1.5" stroke-linecap="round"/>
<path d="M139.47 90.3565C142.885 89.101 146.721 89.1358 150.302 88.9498" stroke="#E6E3BD" stroke-width="1.5" stroke-linecap="round"/>
<path d="M113.304 104.987C112.555 106.393 111.56 107.827 111.053 109.348" stroke="#E6E3BD" stroke-width="1.5" stroke-linecap="round"/>
<path d="M112.741 114.412C115.82 113.529 118.817 112.471 122.026 112.302" stroke="#E6E3BD" stroke-width="1.5" stroke-linecap="round"/>
<path d="M100.502 116.803C99.9668 120.033 98.9566 123.256 98.6737 126.51" stroke="#E6E3BD" stroke-width="1.5" stroke-linecap="round"/>
<path d="M98.9552 130.027C102.673 128.93 106.138 127.635 110.068 127.635" stroke="#E6E3BD" stroke-width="1.5" stroke-linecap="round"/>
<path d="M89.53 135.795C88.9804 138.388 88.6207 141.077 87.4512 143.485C86.7261 144.978 85.7236 146.256 84.8096 147.627C84.3933 148.251 85.5386 147.494 85.6615 147.416C87.0988 146.506 88.4404 145.582 89.9521 144.798" stroke="#E6E3BD" stroke-width="1.5" stroke-linecap="round"/>
<path d="M125.965 88.5277C126.896 91.2059 126.044 93.7007 125.683 96.4055" stroke="#E6E3BD" stroke-width="1.5" stroke-linecap="round"/>
<path d="M129.341 100.063C131.78 100.28 134.215 100.463 136.656 100.626" stroke="#E6E3BD" stroke-width="1.5" stroke-linecap="round"/>
</g>
<defs>
<clipPath id="clip0_326_33161">
<rect width="136.93" height="207.603" fill="white" transform="translate(87.9277 0.140625) rotate(25.0579)"/>
</clipPath>
</defs>
</svg>
