<svg width="220" height="250" viewBox="0 0 220 250" fill="none" xmlns="http://www.w3.org/2000/svg">
<g clip-path="url(#clip0_368_21300)">
<path d="M148.95 113.459C137.395 112.377 125.433 111.43 114.557 115.76C106.673 118.872 100.148 124.421 94.3022 130.375C88.3208 136.464 82.7472 143.095 78.2612 150.403C66.8422 169.212 63.3078 197.765 64.939 219.688" stroke="#E6E3BD" stroke-width="1.5" stroke-miterlimit="10" stroke-linecap="round" stroke-linejoin="round"/>
<path d="M140.25 121.985C144.329 126.45 148.271 129.833 150.038 135.652C152.213 142.689 150.31 150.403 148.407 157.575C148.951 154.598 147.591 151.62 145.824 149.185C144.057 146.749 141.746 144.719 139.979 142.283C135.9 136.194 136.036 127.804 140.25 121.985Z" stroke="#E6E3BD" stroke-width="1.5" stroke-miterlimit="10" stroke-linecap="round" stroke-linejoin="round"/>
<path d="M125.161 125.232C124.482 129.969 123.666 134.976 124.753 139.577C125.705 143.772 128.152 147.561 130.463 151.214C132.91 155.003 135.357 158.657 137.668 162.446C136.988 157.439 136.308 152.432 135.629 147.425C134.541 138.629 130.735 132.134 125.161 125.232Z" stroke="#E6E3BD" stroke-width="1.5" stroke-miterlimit="10" stroke-linecap="round" stroke-linejoin="round"/>
<path d="M111.975 133.758C120.403 143.23 119.315 155.274 116.732 165.829C117.14 164.07 115.917 162.311 114.693 160.958C111.975 157.71 109.392 154.327 107.76 150.402C106.129 146.478 105.857 141.877 107.624 138.088C108.576 136.194 110.071 134.57 111.975 133.758Z" stroke="#E6E3BD" stroke-width="1.5" stroke-miterlimit="10" stroke-linecap="round" stroke-linejoin="round"/>
<path d="M104.09 135.111C97.8369 135.788 97.1572 149.726 98.5166 157.033C99.876 164.341 102.323 171.513 102.595 178.82C104.634 173.813 106.537 168.671 107.353 163.258C107.896 159.198 107.489 155.951 108.576 151.891" stroke="#E6E3BD" stroke-width="1.5" stroke-miterlimit="10" stroke-linecap="round" stroke-linejoin="round"/>
<path d="M104.09 135.111C105.722 135.382 106.401 137.141 107.081 139.171" stroke="#E6E3BD" stroke-width="1.5" stroke-miterlimit="10" stroke-linecap="round" stroke-linejoin="round"/>
<path d="M103.682 134.705C104.226 128.751 97.837 124.691 92.1275 122.661C85.4664 120.361 77.7178 119.143 71.7364 122.797C65.3472 126.586 63.0362 134.434 61.5409 141.742C56.3751 167.318 56.2392 188.293 61.6768 213.869" stroke="#E6E3BD" stroke-width="1.5" stroke-miterlimit="10" stroke-linecap="round" stroke-linejoin="round"/>
<path d="M111.567 131.051C108.712 119.143 96.4773 111.024 84.2426 109.67C81.5238 109.4 78.805 109.4 76.2221 109.941C69.5611 111.565 64.8031 117.654 62.6281 124.015C60.4531 130.375 60.3171 137.547 60.0452 144.313C59.9093 151.079 59.3655 154.327 58.278 162.987" stroke="#E6E3BD" stroke-width="1.5" stroke-miterlimit="10" stroke-linecap="round" stroke-linejoin="round"/>
<path d="M92.3988 78.9521C91.8551 79.8993 91.5832 80.8466 91.3113 81.7939C90.7675 85.0416 92.2629 88.2894 93.0785 91.6724C94.7098 98.1679 92.8067 108.452 88.7284 113.865" stroke="#E6E3BD" stroke-width="1.5" stroke-miterlimit="10" stroke-linecap="round" stroke-linejoin="round"/>
<path d="M91.4478 87.748C88.0492 90.8605 86.418 95.5968 86.1461 100.333C86.0101 104.934 87.2336 109.535 88.7289 114.001" stroke="#E6E3BD" stroke-width="1.5" stroke-miterlimit="10" stroke-linecap="round" stroke-linejoin="round"/>
<path d="M114.286 85.4476C109.256 89.6426 111.567 93.8376 113.606 97.2207C115.645 100.468 118.636 103.31 119.723 107.099C119.995 103.04 119.859 98.8446 119.18 94.7849C118.772 92.7551 118.364 90.5899 117.141 88.8307C115.917 86.9362 114.286 85.583 112.519 84.0944C108.169 80.576 101.779 76.5163 95.9339 75.4338C94.3026 75.1631 92.5354 75.1631 90.9041 75.7044C90.0885 75.975 89.4087 76.1104 88.5931 76.381C79.3492 78.9521 70.3771 82.7412 62.7644 88.5601C43.5968 103.175 36.392 129.428 39.1108 153.244C41.8296 177.061 52.9767 199.119 65.0754 219.958C70.9209 229.972 77.0382 239.851 83.2914 249.594" stroke="#E6E3BD" stroke-width="1.5" stroke-miterlimit="10" stroke-linecap="round" stroke-linejoin="round"/>
<path d="M115.373 82.6058C122.578 80.9819 130.463 82.4704 136.444 86.8008C139.435 88.9659 142.29 92.6196 140.93 96.0027C140.25 94.7848 138.619 94.3788 137.124 94.2435C133.453 93.7022 129.919 93.0256 126.385 91.943C122.85 90.8605 115.781 86.3948 115.373 82.6058Z" stroke="#E6E3BD" stroke-width="1.5" stroke-miterlimit="10" stroke-linecap="round" stroke-linejoin="round"/>
<path d="M79.2134 86.3949C80.4368 85.9889 81.7962 86.8009 82.0681 88.0188C82.7478 91.2665 80.029 96.9501 77.1742 100.063C73.7757 103.716 69.1538 106.152 64.3958 107.911C69.9694 101.416 71.8726 88.966 79.2134 86.3949Z" stroke="#E6E3BD" stroke-width="1.5" stroke-miterlimit="10" stroke-linecap="round" stroke-linejoin="round"/>
<path d="M104.226 85.8536C107.081 92.8904 105.178 101.551 101.507 108.317C101.1 107.776 100.828 106.558 100.828 105.611C100.692 98.8446 97.0213 92.2138 98.9245 85.7183C99.1963 84.5004 99.876 83.2825 100.964 82.8765C102.187 82.4706 103.546 84.2298 104.226 85.8536Z" stroke="#E6E3BD" stroke-width="1.5" stroke-miterlimit="10" stroke-linecap="round" stroke-linejoin="round"/>
<path d="M91.5837 55.6766C90.904 60.8189 87.6415 65.2845 83.4273 68.1263C79.2132 70.9681 74.1834 72.7273 69.1536 73.8099C66.8426 74.3512 64.2597 74.6218 62.3566 73.2686" stroke="#E6E3BD" stroke-width="1.5" stroke-miterlimit="10" stroke-linecap="round" stroke-linejoin="round"/>
<path d="M91.5837 55.6766C69.8333 58.1124 65.0754 66.5025 62.3566 73.2686" stroke="#E6E3BD" stroke-width="1.5" stroke-miterlimit="10" stroke-linecap="round" stroke-linejoin="round"/>
<path d="M60.1816 74.8924C53.5206 80.9819 48.083 90.0485 43.8688 98.0326C40.0625 105.205 38.5671 113.459 37.7515 121.579C36.9358 129.427 38.0234 137.141 38.4312 144.99" stroke="#E6E3BD" stroke-width="1.5" stroke-miterlimit="10" stroke-linecap="round" stroke-linejoin="round"/>
<path d="M164.04 119.008C162.952 116.707 164.992 114.136 167.438 114.271C172.332 114.542 175.323 117.654 177.906 122.391C180.897 127.804 181.576 134.164 181.984 140.389C182.528 138.088 181.032 135.923 179.673 134.028C176.275 129.833 172.196 126.044 167.846 122.797C166.351 121.714 164.856 120.631 164.04 119.008Z" stroke="#E6E3BD" stroke-width="1.5" stroke-miterlimit="10" stroke-linecap="round" stroke-linejoin="round"/>
<path d="M158.194 121.849C158.874 121.985 159.962 122.526 160.913 123.879C164.584 128.751 165.263 134.705 165.807 140.795C165.943 141.607 165.263 144.719 164.72 144.178C163.768 140.253 162.137 137.006 159.962 134.434C157.787 131.863 155.204 129.292 154.388 126.044C154.116 124.962 154.116 123.744 154.796 122.797C155.34 121.985 157.107 121.443 158.194 121.849Z" stroke="#E6E3BD" stroke-width="1.5" stroke-miterlimit="10" stroke-linecap="round" stroke-linejoin="round"/>
<path d="M102.543 183.972L101.481 190.875" stroke="#E6E3BD" stroke-width="1.5" stroke-linecap="round"/>
<path d="M116.88 171.228L115.818 175.476" stroke="#E6E3BD" stroke-width="1.5" stroke-linecap="round"/>
<path d="M182.193 146.802C182.151 149.134 181.894 151.389 181.662 153.705" stroke="#E6E3BD" stroke-width="1.5" stroke-linecap="round"/>
<path d="M144.492 98.4813L146.085 102.729" stroke="#E6E3BD" stroke-width="1.5" stroke-linecap="round"/>
<path d="M60.5945 111.225C58.5601 113.06 57.3649 114.871 55.8155 117.066" stroke="#E6E3BD" stroke-width="1.5" stroke-linecap="round"/>
<path d="M148.209 162.201C147.55 164.177 146.905 166.129 146.085 168.042" stroke="#E6E3BD" stroke-width="1.5" stroke-linecap="round"/>
<path d="M166.263 151.05L165.201 155.829" stroke="#E6E3BD" stroke-width="1.5" stroke-linecap="round"/>
</g>
<defs>
<clipPath id="clip0_368_21300">
<rect width="146" height="195" fill="white" transform="matrix(-1 0 0 1 182.8 55)"/>
</clipPath>
</defs>
</svg>
